<?xml version="1.0" encoding="UTF-8"?>
<!DOCTYPE svg PUBLIC "-//W3C//DTD SVG 1.1//EN" "http://www.w3.org/Graphics/SVG/1.1/DTD/svg11.dtd">
<svg xmlns="http://www.w3.org/2000/svg" version="1.1" width="1300px" height="1274px" style="shape-rendering:geometricPrecision; text-rendering:geometricPrecision; image-rendering:optimizeQuality; fill-rule:evenodd; clip-rule:evenodd" xmlns:xlink="http://www.w3.org/1999/xlink">
<g><path style="opacity:0.917" fill="#000000" d="M 497.5,49.5 C 523.005,45.4877 543.171,53.8211 558,74.5C 566.071,90.2406 568.738,106.907 566,124.5C 557.25,159.645 534.75,175.145 498.5,171C 472.378,164.206 457.545,147.373 454,120.5C 450.855,95.9193 458.355,75.4193 476.5,59C 483.095,54.698 490.095,51.5314 497.5,49.5 Z M 507.5,63.5 C 531.073,64.2377 544.906,76.2377 549,99.5C 550.773,112.648 549.106,125.315 544,137.5C 534.066,153.044 519.899,159.211 501.5,156C 480.474,148.826 470.141,133.992 470.5,111.5C 470.335,100.493 472.835,90.1595 478,80.5C 485.412,70.5467 495.245,64.8801 507.5,63.5 Z"/></g>
<g><path style="opacity:0.914" fill="#000000" d="M 484.5,186.5 C 488.5,186.5 492.5,186.5 496.5,186.5C 496.333,248.834 496.5,311.168 497,373.5C 501.61,371.065 506.11,368.398 510.5,365.5C 514.89,368.398 519.39,371.065 524,373.5C 524.5,311.168 524.667,248.834 524.5,186.5C 528.167,186.5 531.833,186.5 535.5,186.5C 535.167,251.17 535.5,315.837 536.5,380.5C 611.503,423.698 686.336,467.032 761,510.5C 756.315,594.036 750.815,678.036 744.5,762.5C 744.833,763.167 745.167,763.833 745.5,764.5C 812.833,803.167 880.167,841.833 947.5,880.5C 1003.57,848.047 1059.74,815.714 1116,783.5C 1117.73,785.29 1119.23,787.29 1120.5,789.5C 1121.83,791.167 1121.83,792.833 1120.5,794.5C 1066.87,825.32 1013.2,856.153 959.5,887C 963.36,890.188 967.527,893.021 972,895.5C 972.333,900.833 972.667,906.167 973,911.5C 1026.95,880.446 1080.78,849.279 1134.5,818C 1136,817.493 1137.16,817.993 1138,819.5C 1139,821.5 1140,823.5 1141,825.5C 1141.75,826.635 1141.58,827.635 1140.5,828.5C 1084.56,860.601 1028.72,892.935 973,925.5C 972.5,978.832 972.333,1032.17 972.5,1085.5C 968.167,1085.5 963.833,1085.5 959.5,1085.5C 959.169,1024.6 959.502,963.762 960.5,903C 886.583,860.077 812.583,817.244 738.5,774.5C 687.733,804.39 636.733,834.057 585.5,863.5C 583.167,860.178 580.834,856.844 578.5,853.5C 629.21,823.623 680.044,793.957 731,764.5C 729.549,731.653 727.382,698.82 724.5,666C 724.544,664.236 724.878,662.569 725.5,661C 724.241,652.749 723.241,644.415 722.5,636C 722.544,634.236 722.878,632.569 723.5,631C 720.038,586.541 716.538,542.041 713,497.5C 645.897,458.276 578.564,419.276 511,380.5C 460.002,409.253 409.169,438.42 358.5,468C 357.668,468.688 357.002,468.521 356.5,467.5C 354.501,464.838 352.835,462.004 351.5,459C 352.272,457.779 353.272,456.779 354.5,456C 397.927,431.206 441.093,406.039 484,380.5C 484.5,315.834 484.667,251.168 484.5,186.5 Z"/></g>
<g><path style="opacity:0.946" fill="#000000" d="M 49.5,445.5 C 54.8333,445.5 60.1667,445.5 65.5,445.5C 65.5,461.833 65.5,478.167 65.5,494.5C 85.8361,494.667 106.169,494.5 126.5,494C 125.343,478.241 125.176,462.408 126,446.5C 131.407,445.527 136.907,445.193 142.5,445.5C 142.5,485.167 142.5,524.833 142.5,564.5C 136.833,564.5 131.167,564.5 125.5,564.5C 125.174,546.257 125.508,528.09 126.5,510C 106.169,509.5 85.8361,509.333 65.5,509.5C 65.5,527.833 65.5,546.167 65.5,564.5C 60.1667,564.5 54.8333,564.5 49.5,564.5C 49.5,524.833 49.5,485.167 49.5,445.5 Z"/></g>
<g><path style="opacity:0.928" fill="#000000" d="M 236.5,445.5 C 242.176,445.334 247.843,445.501 253.5,446C 272.876,475.253 292.376,504.419 312,533.5C 312.333,504.5 312.667,475.5 313,446.5C 318.407,445.527 323.907,445.193 329.5,445.5C 329.5,485.167 329.5,524.833 329.5,564.5C 323.491,564.666 317.491,564.499 311.5,564C 291.876,534.586 272.376,505.086 253,475.5C 252.5,505.165 252.333,534.831 252.5,564.5C 246.833,564.5 241.167,564.5 235.5,564.5C 235.173,524.761 235.506,485.094 236.5,445.5 Z"/></g>
<g><path style="opacity:0.875" fill="#000000" d="M 179.5,509.5 C 185.509,509.334 191.509,509.501 197.5,510C 214.043,515.918 219.876,527.418 215,544.5C 213,547.833 211,551.167 209,554.5C 197.781,565.056 186.614,575.556 175.5,586C 189.496,586.5 203.496,586.667 217.5,586.5C 217.5,590.833 217.5,595.167 217.5,599.5C 197.833,599.5 178.167,599.5 158.5,599.5C 158.159,592.024 160.325,585.357 165,579.5C 176.056,568.288 187.39,557.288 199,546.5C 205.237,539.221 205.737,531.721 200.5,524C 193.024,518.473 185.357,518.139 177.5,523C 174.058,526.816 172.058,531.316 171.5,536.5C 167.575,536.998 163.575,536.998 159.5,536.5C 160.181,522.848 166.848,513.848 179.5,509.5 Z"/></g>
<g><path style="opacity:0.92" fill="#000000" d="M 1185.5,706.5 C 1219.52,705.071 1240.69,720.738 1249,753.5C 1252.78,774.252 1248.78,793.252 1237,810.5C 1217.73,829.756 1195.23,834.589 1169.5,825C 1151.74,816.234 1141.24,802.067 1138,782.5C 1133.18,756.464 1140.35,734.631 1159.5,717C 1167.61,711.805 1176.27,708.305 1185.5,706.5 Z M 1190.5,721.5 C 1211.55,721.432 1225.05,731.432 1231,751.5C 1235.22,768.831 1232.89,785.164 1224,800.5C 1211.33,813.939 1196.17,817.773 1178.5,812C 1161.62,803.092 1153.28,788.925 1153.5,769.5C 1153.59,757.243 1156.76,745.91 1163,735.5C 1170.56,727.471 1179.73,722.804 1190.5,721.5 Z"/></g>
<g><path style="opacity:0.966" fill="#000000" d="M 276.5,840.5 C 281.833,840.5 287.167,840.5 292.5,840.5C 292.5,856.833 292.5,873.167 292.5,889.5C 312.833,889.5 333.167,889.5 353.5,889.5C 353.5,873.167 353.5,856.833 353.5,840.5C 358.833,840.5 364.167,840.5 369.5,840.5C 369.5,880.167 369.5,919.833 369.5,959.5C 364.167,959.5 358.833,959.5 353.5,959.5C 353.5,941.167 353.5,922.833 353.5,904.5C 333.167,904.5 312.833,904.5 292.5,904.5C 292.5,922.833 292.5,941.167 292.5,959.5C 287.167,959.5 281.833,959.5 276.5,959.5C 276.5,919.833 276.5,880.167 276.5,840.5 Z"/></g>
<g><path style="opacity:0.925" fill="#000000" d="M 463.5,840.5 C 469.509,840.334 475.509,840.501 481.5,841C 501.372,869.908 520.872,899.075 540,928.5C 540.5,899.169 540.667,869.835 540.5,840.5C 546.167,840.5 551.833,840.5 557.5,840.5C 557.5,880.167 557.5,919.833 557.5,959.5C 551.242,959.81 545.076,959.476 539,958.5C 519.667,929.167 500.333,899.833 481,870.5C 480.5,900.165 480.333,929.831 480.5,959.5C 474.833,959.5 469.167,959.5 463.5,959.5C 463.5,919.833 463.5,880.167 463.5,840.5 Z"/></g>
<g><path style="opacity:0.872" fill="#000000" d="M 407.5,904.5 C 421.949,901.477 433.449,905.811 442,917.5C 446.645,930.254 444.312,941.587 435,951.5C 424.466,961.703 413.632,971.536 402.5,981C 416.5,981.333 430.5,981.667 444.5,982C 445.464,986.066 445.797,990.233 445.5,994.5C 425.5,994.5 405.5,994.5 385.5,994.5C 385.962,987.578 388.128,981.245 392,975.5C 402.976,964.192 414.309,953.192 426,942.5C 434.271,933.613 434.105,925.113 425.5,917C 410.442,911.57 401.776,916.737 399.5,932.5C 395.519,931.979 391.519,931.646 387.5,931.5C 388.126,917.877 394.793,908.877 407.5,904.5 Z"/></g>
<g><path style="opacity:0.917" fill="#000000" d="M 953.5,1101.5 C 991.902,1097.77 1014.74,1114.77 1022,1152.5C 1024.8,1174.42 1018.97,1193.58 1004.5,1210C 989.627,1222.18 972.627,1226.51 953.5,1223C 930.667,1217.5 916.5,1203.33 911,1180.5C 906.021,1157.72 910.354,1137.06 924,1118.5C 932.321,1110.09 942.155,1104.43 953.5,1101.5 Z M 957.5,1116.5 C 988.681,1115.68 1004.68,1131.01 1005.5,1162.5C 1005.84,1175.32 1002.01,1186.98 994,1197.5C 977.365,1211.69 959.865,1212.86 941.5,1201C 933.411,1193.99 928.577,1185.16 927,1174.5C 924.696,1159.36 927.029,1145.03 934,1131.5C 940.231,1123.81 948.065,1118.81 957.5,1116.5 Z"/></g>
<g><path style="opacity:0.925" fill="#000000" d="M 1042.5,1103.5 C 1048.17,1103.5 1053.83,1103.5 1059.5,1103.5C 1059.5,1119.5 1059.5,1135.5 1059.5,1151.5C 1079.5,1151.5 1099.5,1151.5 1119.5,1151.5C 1119.5,1135.5 1119.5,1119.5 1119.5,1103.5C 1125.17,1103.5 1130.83,1103.5 1136.5,1103.5C 1136.5,1143.17 1136.5,1182.83 1136.5,1222.5C 1130.83,1222.5 1125.17,1222.5 1119.5,1222.5C 1119.5,1203.83 1119.5,1185.17 1119.5,1166.5C 1099.5,1166.5 1079.5,1166.5 1059.5,1166.5C 1059.5,1185.17 1059.5,1203.83 1059.5,1222.5C 1053.83,1222.5 1048.17,1222.5 1042.5,1222.5C 1042.5,1182.83 1042.5,1143.17 1042.5,1103.5 Z"/></g>
</svg>
