<?xml version="1.0" encoding="UTF-8"?>
<!DOCTYPE svg PUBLIC "-//W3C//DTD SVG 1.1//EN" "http://www.w3.org/Graphics/SVG/1.1/DTD/svg11.dtd">
<svg xmlns="http://www.w3.org/2000/svg" version="1.1" width="2560px" height="1674px" style="shape-rendering:geometricPrecision; text-rendering:geometricPrecision; image-rendering:optimizeQuality; fill-rule:evenodd; clip-rule:evenodd" xmlns:xlink="http://www.w3.org/1999/xlink">
<g><path style="opacity:0.959" fill="#000000" d="M 1722.5,40.5 C 1784.55,42.712 1821.05,74.3786 1832,135.5C 1838.3,174.718 1829.63,210.052 1806,241.5C 1776.17,270.548 1740.67,281.048 1699.5,273C 1654.78,260.944 1627.95,232.111 1619,186.5C 1613.53,154.565 1617.53,123.898 1631,94.5C 1651.66,59.9184 1682.16,41.9184 1722.5,40.5 Z M 1717.5,67.5 C 1766.83,68.3155 1794.66,93.3155 1801,142.5C 1804.15,167.437 1800.15,191.104 1789,213.5C 1768.09,243.685 1739.59,254.518 1703.5,246C 1669.78,233.79 1651.61,209.624 1649,173.5C 1646.33,147.856 1650.66,123.523 1662,100.5C 1675.86,81.6542 1694.36,70.6542 1717.5,67.5 Z"/></g>
<g><path style="opacity:0.961" fill="#000000" d="M 1674.5,304.5 C 1682.17,304.5 1689.83,304.5 1697.5,304.5C 1697.17,426.502 1697.5,548.502 1698.5,670.5C 1707.38,665.23 1716.38,660.23 1725.5,655.5C 1734.62,660.23 1743.62,665.23 1752.5,670.5C 1753.5,548.502 1753.83,426.502 1753.5,304.5C 1761.17,304.5 1768.83,304.5 1776.5,304.5C 1776.33,431.167 1776.5,557.834 1777,684.5C 1871.92,739.712 1967.09,794.546 2062.5,849C 2063.36,849.689 2064.02,850.522 2064.5,851.5C 2060.8,857.37 2057.3,863.37 2054,869.5C 2052.95,870.517 2051.78,870.684 2050.5,870C 1942.46,806.979 1834.12,744.479 1725.5,682.5C 1579.54,766.484 1433.54,850.484 1287.5,934.5C 1287.17,935.833 1286.83,937.167 1286.5,938.5C 1299.23,1065.5 1311.9,1192.5 1324.5,1319.5C 1290.5,1319.5 1256.5,1319.5 1222.5,1319.5C 1235.47,1192.34 1248.47,1065.17 1261.5,938C 1261.56,936.289 1260.89,934.956 1259.5,934C 1113.73,850.033 967.899,766.2 822,682.5C 710.52,746.24 599.186,810.24 488,874.5C 483.53,868.396 479.696,861.896 476.5,855C 591.118,787.892 706.118,721.392 821.5,655.5C 972.541,741.771 1123.37,828.438 1274,915.5C 1407.17,838.247 1540.5,761.247 1674,684.5C 1674.5,557.834 1674.67,431.167 1674.5,304.5 Z"/></g>
<g><path style="opacity:0.957" fill="#000000" d="M 363.5,822.5 C 387.965,821.364 410.298,827.53 430.5,841C 445.617,854.403 453.284,871.237 453.5,891.5C 443.512,892.32 433.512,892.986 423.5,893.5C 421.248,868.413 407.581,854.247 382.5,851C 370.053,849.917 357.72,850.584 345.5,853C 321.126,860.577 313.626,876.077 323,899.5C 329.896,906.2 338.062,910.7 347.5,913C 372.148,918.578 396.481,925.245 420.5,933C 455.907,949.322 467.74,976.155 456,1013.5C 446.365,1033.46 430.865,1046.63 409.5,1053C 381.109,1059.94 353.109,1058.61 325.5,1049C 296.971,1035.62 281.638,1013.12 279.5,981.5C 280.376,980.749 281.376,980.249 282.5,980C 291.525,979.316 300.525,978.483 309.5,977.5C 311.371,1004.21 325.371,1020.71 351.5,1027C 367.169,1030.33 382.836,1030.33 398.5,1027C 421.022,1021.51 431.522,1007.34 430,984.5C 427.738,977.248 423.571,971.415 417.5,967C 409.989,962.58 401.989,959.247 393.5,957C 374.457,952.156 355.457,947.156 336.5,942C 321.826,937.583 309.326,929.749 299,918.5C 287.428,900.936 285.428,882.269 293,862.5C 302.67,842.517 318.503,830.35 340.5,826C 348.257,824.447 355.924,823.28 363.5,822.5 Z"/></g>
<g><path style="opacity:0.96" fill="#000000" d="M 2174.5,822.5 C 2239.14,825.632 2275.97,859.299 2285,923.5C 2289.46,959.585 2281.12,992.252 2260,1021.5C 2237.8,1045.34 2210.3,1057.34 2177.5,1057.5C 2137.18,1057.27 2106.34,1040.27 2085,1006.5C 2066.84,970.107 2063.84,932.44 2076,893.5C 2093.39,848.39 2126.22,824.723 2174.5,822.5 Z M 2169.5,849.5 C 2205.61,847.624 2231.11,862.957 2246,895.5C 2257.83,928.24 2256.83,960.573 2243,992.5C 2223.64,1023.59 2195.8,1035.76 2159.5,1029C 2132.2,1021.03 2114.03,1003.53 2105,976.5C 2098.88,951.43 2099.21,926.43 2106,901.5C 2112.48,879.014 2126.65,863.514 2148.5,855C 2155.45,852.451 2162.45,850.618 2169.5,849.5 Z"/></g>
<g><path style="opacity:0.962" fill="#000000" d="M 63.5,826.5 C 73.8333,826.5 84.1667,826.5 94.5,826.5C 94.5,857.5 94.5,888.5 94.5,919.5C 133.167,919.5 171.833,919.5 210.5,919.5C 210.5,888.5 210.5,857.5 210.5,826.5C 220.749,826.181 230.916,826.514 241,827.5C 241.5,902.833 241.667,978.166 241.5,1053.5C 231.167,1053.5 220.833,1053.5 210.5,1053.5C 210.5,1018.17 210.5,982.833 210.5,947.5C 171.833,947.5 133.167,947.5 94.5,947.5C 94.5,982.833 94.5,1018.17 94.5,1053.5C 84.1667,1053.5 73.8333,1053.5 63.5,1053.5C 63.5,977.833 63.5,902.167 63.5,826.5 Z"/></g>
<g><path style="opacity:0.962" fill="#000000" d="M 2324.5,826.5 C 2334.83,826.5 2345.17,826.5 2355.5,826.5C 2355.5,857.5 2355.5,888.5 2355.5,919.5C 2394.17,919.5 2432.83,919.5 2471.5,919.5C 2471.5,888.5 2471.5,857.5 2471.5,826.5C 2481.83,826.5 2492.17,826.5 2502.5,826.5C 2502.5,902.167 2502.5,977.833 2502.5,1053.5C 2492.17,1053.5 2481.83,1053.5 2471.5,1053.5C 2471.5,1018.17 2471.5,982.833 2471.5,947.5C 2432.83,947.5 2394.17,947.5 2355.5,947.5C 2355.5,982.833 2355.5,1018.17 2355.5,1053.5C 2345.17,1053.5 2334.83,1053.5 2324.5,1053.5C 2324.5,977.833 2324.5,902.167 2324.5,826.5 Z"/></g>
<g><path style="opacity:0.958" fill="#000000" d="M 1183.5,1348.5 C 1194.17,1348.33 1204.84,1348.5 1215.5,1349C 1254.46,1407.08 1293.29,1465.25 1332,1523.5C 1332.5,1465.17 1332.67,1406.83 1332.5,1348.5C 1342.5,1348.5 1352.5,1348.5 1362.5,1348.5C 1362.5,1424.17 1362.5,1499.83 1362.5,1575.5C 1351.59,1575.82 1340.75,1575.49 1330,1574.5C 1291.33,1516.5 1252.67,1458.5 1214,1400.5C 1213.5,1458.83 1213.33,1517.17 1213.5,1575.5C 1203.5,1575.5 1193.5,1575.5 1183.5,1575.5C 1183.5,1499.83 1183.5,1424.17 1183.5,1348.5 Z"/></g>
<g><path style="opacity:0.975" fill="#000000" d="M 1413.5,1348.5 C 1423.5,1348.5 1433.5,1348.5 1443.5,1348.5C 1443.5,1379.5 1443.5,1410.5 1443.5,1441.5C 1482.17,1441.5 1520.83,1441.5 1559.5,1441.5C 1559.5,1410.5 1559.5,1379.5 1559.5,1348.5C 1569.83,1348.5 1580.17,1348.5 1590.5,1348.5C 1590.5,1424.17 1590.5,1499.83 1590.5,1575.5C 1580.17,1575.5 1569.83,1575.5 1559.5,1575.5C 1559.5,1540.17 1559.5,1504.83 1559.5,1469.5C 1520.83,1469.5 1482.17,1469.5 1443.5,1469.5C 1443.5,1504.83 1443.5,1540.17 1443.5,1575.5C 1433.5,1575.5 1423.5,1575.5 1413.5,1575.5C 1413.5,1499.83 1413.5,1424.17 1413.5,1348.5 Z"/></g>
<g><path style="opacity:0.943" fill="#000000" d="M 1670.5,1463.5 C 1691.95,1460.97 1709.78,1467.64 1724,1483.5C 1733.64,1499.1 1734.97,1515.43 1728,1532.5C 1725.08,1538.68 1721.41,1544.34 1717,1549.5C 1700.4,1566.44 1682.9,1582.28 1664.5,1597C 1659.09,1601.74 1654.42,1607.07 1650.5,1613C 1677.83,1613.5 1705.16,1613.67 1732.5,1613.5C 1732.5,1620.5 1732.5,1627.5 1732.5,1634.5C 1694.83,1634.5 1657.17,1634.5 1619.5,1634.5C 1620.17,1620.82 1625.01,1608.82 1634,1598.5C 1647.25,1583.91 1661.75,1570.75 1677.5,1559C 1686.74,1550.43 1695.24,1541.27 1703,1531.5C 1713.85,1515.08 1712.01,1500.25 1697.5,1487C 1681.36,1478.73 1666.53,1480.57 1653,1492.5C 1648.19,1499.39 1645.69,1507.05 1645.5,1515.5C 1638.12,1515.23 1630.79,1514.56 1623.5,1513.5C 1626.16,1484.5 1641.83,1467.84 1670.5,1463.5 Z"/></g>
</svg>
