<?xml version="1.0" encoding="UTF-8"?>
<!DOCTYPE svg PUBLIC "-//W3C//DTD SVG 1.1//EN" "http://www.w3.org/Graphics/SVG/1.1/DTD/svg11.dtd">
<svg xmlns="http://www.w3.org/2000/svg" version="1.1" width="1100px" height="631px" style="shape-rendering:geometricPrecision; text-rendering:geometricPrecision; image-rendering:optimizeQuality; fill-rule:evenodd; clip-rule:evenodd" xmlns:xlink="http://www.w3.org/1999/xlink">
<g><path style="opacity:0.921" fill="#000000" d="M 979.5,49.5 C 1016.84,45.3829 1040.01,61.3829 1049,97.5C 1053.49,121.722 1047.66,142.888 1031.5,161C 1007.77,178.749 983.104,180.082 957.5,165C 935.878,145.289 928.712,121.122 936,92.5C 942.46,69.8726 956.96,55.5392 979.5,49.5 Z M 984.5,64.5 C 1011.87,62.7671 1027.71,75.4338 1032,102.5C 1034.36,118.052 1031.36,132.386 1023,145.5C 1006.2,162.217 987.697,164.384 967.5,152C 958.545,144.593 953.379,135.093 952,123.5C 949.995,109.213 951.995,95.5463 958,82.5C 964.636,73.1105 973.47,67.1105 984.5,64.5 Z"/></g>
<g><path style="opacity:0.9" fill="#000000" d="M 522.5,104.5 C 594.37,145.012 666.037,186.012 737.5,227.5C 795.946,194.108 854.28,160.441 912.5,126.5C 914.307,130.133 916.307,133.633 918.5,137C 862.889,170.146 806.889,202.812 750.5,235C 754.942,237.268 759.276,239.768 763.5,242.5C 764.167,247.833 764.833,253.167 765.5,258.5C 820.458,226.773 875.458,194.939 930.5,163C 931.784,162.316 932.951,162.483 934,163.5C 935.771,166.4 937.271,169.4 938.5,172.5C 881.105,206.545 823.439,240.212 765.5,273.5C 764.5,328.496 764.167,383.496 764.5,438.5C 760.167,438.5 755.833,438.5 751.5,438.5C 751.833,375.496 751.5,312.496 750.5,249.5C 674.801,206.232 599.301,162.565 524,118.5C 472.297,149.094 420.464,179.261 368.5,209C 366.633,209.711 365.133,209.211 364,207.5C 362.502,205.016 361.002,202.516 359.5,200C 360.272,198.779 361.272,197.779 362.5,197C 416.303,166.806 469.636,135.973 522.5,104.5 Z"/></g>
<g><path style="opacity:0.951" fill="#000000" d="M 49.5,186.5 C 55.1667,186.5 60.8333,186.5 66.5,186.5C 66.5,203.167 66.5,219.833 66.5,236.5C 87.1667,236.5 107.833,236.5 128.5,236.5C 128.5,219.833 128.5,203.167 128.5,186.5C 134.167,186.5 139.833,186.5 145.5,186.5C 145.5,227.167 145.5,267.833 145.5,308.5C 139.833,308.5 134.167,308.5 128.5,308.5C 128.5,289.5 128.5,270.5 128.5,251.5C 107.833,251.5 87.1667,251.5 66.5,251.5C 66.5,270.5 66.5,289.5 66.5,308.5C 60.8333,308.5 55.1667,308.5 49.5,308.5C 49.5,267.833 49.5,227.167 49.5,186.5 Z"/></g>
<g><path style="opacity:0.947" fill="#000000" d="M 241.5,186.5 C 247.509,186.334 253.509,186.501 259.5,187C 279.791,217.081 299.957,247.247 320,277.5C 320.5,247.168 320.667,216.835 320.5,186.5C 326.167,186.5 331.833,186.5 337.5,186.5C 337.5,227.167 337.5,267.833 337.5,308.5C 331.491,308.666 325.491,308.499 319.5,308C 299.209,277.919 279.043,247.753 259,217.5C 258.5,247.832 258.333,278.165 258.5,308.5C 252.833,308.5 247.167,308.5 241.5,308.5C 241.5,267.833 241.5,227.167 241.5,186.5 Z"/></g>
<g><path style="opacity:0.904" fill="#000000" d="M 182.5,252.5 C 188.842,252.334 195.175,252.5 201.5,253C 219.178,259.33 225.012,271.496 219,289.5C 216.916,293.336 214.583,297.003 212,300.5C 200.595,311.117 189.095,321.617 177.5,332C 192.496,332.5 207.496,332.667 222.5,332.5C 222.5,336.5 222.5,340.5 222.5,344.5C 202.167,344.5 181.833,344.5 161.5,344.5C 161.743,336.684 164.243,329.684 169,323.5C 178.869,313.388 189.202,303.721 200,294.5C 203.432,290.636 206.099,286.302 208,281.5C 209.496,269.856 204.329,263.523 192.5,262.5C 181.071,263.597 175.071,269.93 174.5,281.5C 170.833,280.833 167.167,280.167 163.5,279.5C 163.647,266.221 169.981,257.221 182.5,252.5 Z"/></g>
<g><path style="opacity:0.919" fill="#000000" d="M 748.5,454.5 C 784.879,452.425 807.046,469.092 815,504.5C 818.567,524.888 814.567,543.555 803,560.5C 787.524,577.548 768.357,584.048 745.5,580C 721.605,573.771 706.771,558.604 701,534.5C 697.213,514.669 700.213,496.002 710,478.5C 719.819,465.515 732.652,457.515 748.5,454.5 Z M 755.5,469.5 C 782.204,471.371 796.371,485.704 798,512.5C 800.294,531.223 794.46,546.723 780.5,559C 760.076,570.012 741.909,567.178 726,550.5C 713.607,528.545 713.607,506.545 726,484.5C 733.938,475.615 743.771,470.615 755.5,469.5 Z"/></g>
<g><path style="opacity:0.935" fill="#000000" d="M 836.5,456.5 C 842.167,456.5 847.833,456.5 853.5,456.5C 853.5,473.167 853.5,489.833 853.5,506.5C 874.167,506.5 894.833,506.5 915.5,506.5C 915.5,489.833 915.5,473.167 915.5,456.5C 921.167,456.5 926.833,456.5 932.5,456.5C 932.5,497.5 932.5,538.5 932.5,579.5C 926.833,579.5 921.167,579.5 915.5,579.5C 915.5,560.5 915.5,541.5 915.5,522.5C 894.833,522.5 874.167,522.5 853.5,522.5C 853.5,541.5 853.5,560.5 853.5,579.5C 847.833,579.5 842.167,579.5 836.5,579.5C 836.5,538.5 836.5,497.5 836.5,456.5 Z"/></g>
</svg>
