<?xml version="1.0" encoding="UTF-8"?>
<!DOCTYPE svg PUBLIC "-//W3C//DTD SVG 1.1//EN" "http://www.w3.org/Graphics/SVG/1.1/DTD/svg11.dtd">
<svg xmlns="http://www.w3.org/2000/svg" version="1.1" width="1100px" height="1246px" style="shape-rendering:geometricPrecision; text-rendering:geometricPrecision; image-rendering:optimizeQuality; fill-rule:evenodd; clip-rule:evenodd" xmlns:xlink="http://www.w3.org/1999/xlink">
<g><path style="opacity:0.922" fill="#000000" d="M 283.5,49.5 C 287.5,49.5 291.5,49.5 295.5,49.5C 295.333,138.167 295.5,226.834 296,315.5C 379.634,364.153 463.301,412.82 547,461.5C 546.844,465.461 547.01,469.294 547.5,473C 541.018,556.122 535.518,639.289 531,722.5C 599.764,762.796 668.598,802.796 737.5,842.5C 795.978,809.094 854.312,775.427 912.5,741.5C 915.059,745.286 917.059,749.286 918.5,753.5C 862.109,784.866 806.109,817.033 750.5,850C 754.951,852.282 759.284,854.782 763.5,857.5C 764.167,862.833 764.833,868.167 765.5,873.5C 820.458,841.773 875.458,809.939 930.5,778C 931.784,777.316 932.951,777.483 934,778.5C 935.586,780.67 936.92,783.004 938,785.5C 938.749,786.635 938.583,787.635 937.5,788.5C 880.05,821.967 822.383,854.967 764.5,887.5C 764.5,942.833 764.5,998.167 764.5,1053.5C 760.167,1053.5 755.833,1053.5 751.5,1053.5C 751.667,990.499 751.5,927.499 751,864.5C 675.323,820.817 599.657,777.15 524,733.5C 471.271,763.448 418.771,793.781 366.5,824.5C 363.674,821.516 361.341,818.183 359.5,814.5C 412.096,783.954 464.596,753.287 517,722.5C 514.088,666.637 510.255,611.137 505.5,556C 505.544,554.236 505.878,552.569 506.5,551C 503.048,518.296 500.548,485.463 499,452.5C 498.798,450.744 498.298,449.078 497.5,447.5C 428.18,407.506 358.847,367.506 289.5,327.5C 212.728,372.058 135.728,416.392 58.5,460.5C 56.1327,457.606 54.1327,454.44 52.5,451C 53.2718,449.779 54.2718,448.779 55.5,448C 131.41,404.435 207.077,360.602 282.5,316.5C 283.5,227.502 283.833,138.502 283.5,49.5 Z"/></g>
<g><path style="opacity:0.917" fill="#000000" d="M 980.5,663.5 C 1017.25,659.938 1040.08,675.938 1049,711.5C 1052.89,732.581 1048.89,751.915 1037,769.5C 1020.46,787.123 1000.29,793.29 976.5,788C 951.843,779.661 937.676,762.495 934,736.5C 931.055,712.328 938.222,691.828 955.5,675C 963.166,669.497 971.499,665.664 980.5,663.5 Z M 988.5,678.5 C 1009.38,678.184 1023.22,687.851 1030,707.5C 1034.92,725.396 1032.92,742.396 1024,758.5C 1009.12,774.801 991.62,778.301 971.5,769C 957.297,758.933 950.63,745.099 951.5,727.5C 949.678,700.039 962.011,683.706 988.5,678.5 Z"/></g>
<g><path style="opacity:0.934" fill="#000000" d="M 49.5,800.5 C 55.1667,800.5 60.8333,800.5 66.5,800.5C 66.5,817.167 66.5,833.833 66.5,850.5C 87.1667,850.5 107.833,850.5 128.5,850.5C 128.5,833.833 128.5,817.167 128.5,800.5C 134.167,800.5 139.833,800.5 145.5,800.5C 145.5,841.5 145.5,882.5 145.5,923.5C 139.833,923.5 134.167,923.5 128.5,923.5C 128.5,904.5 128.5,885.5 128.5,866.5C 107.833,866.5 87.1667,866.5 66.5,866.5C 66.5,885.5 66.5,904.5 66.5,923.5C 60.8333,923.5 55.1667,923.5 49.5,923.5C 49.5,882.5 49.5,841.5 49.5,800.5 Z"/></g>
<g><path style="opacity:0.941" fill="#000000" d="M 241.5,800.5 C 247.509,800.334 253.509,800.501 259.5,801C 279.667,831.167 299.833,861.333 320,891.5C 320.5,861.168 320.667,830.835 320.5,800.5C 326.167,800.5 331.833,800.5 337.5,800.5C 337.5,841.5 337.5,882.5 337.5,923.5C 331.242,923.81 325.076,923.476 319,922.5C 298.752,892.338 278.752,862.005 259,831.5C 258.5,862.165 258.333,892.832 258.5,923.5C 252.833,923.5 247.167,923.5 241.5,923.5C 241.5,882.5 241.5,841.5 241.5,800.5 Z"/></g>
<g><path style="opacity:0.88" fill="#000000" d="M 185.5,866.5 C 199.867,863.944 211.033,868.61 219,880.5C 223.53,892.709 221.53,903.709 213,913.5C 201.447,924.389 189.947,935.222 178.5,946C 193.163,946.5 207.83,946.667 222.5,946.5C 222.797,950.767 222.464,954.934 221.5,959C 201.503,959.5 181.503,959.667 161.5,959.5C 161.445,951.281 163.945,943.948 169,937.5C 180,927.167 191,916.833 202,906.5C 207.02,901.109 209.02,894.775 208,887.5C 203.527,878.518 196.36,875.351 186.5,878C 178.683,881.117 175.017,886.951 175.5,895.5C 171.233,895.248 167.066,894.581 163,893.5C 163.938,878.925 171.438,869.925 185.5,866.5 Z"/></g>
<g><path style="opacity:0.919" fill="#000000" d="M 748.5,1069.5 C 784.879,1067.43 807.046,1084.09 815,1119.5C 818.567,1139.89 814.567,1158.55 803,1175.5C 787.524,1192.55 768.357,1199.05 745.5,1195C 721.605,1188.77 706.771,1173.6 701,1149.5C 697.213,1129.67 700.213,1111 710,1093.5C 719.819,1080.52 732.652,1072.52 748.5,1069.5 Z M 755.5,1084.5 C 782.204,1086.37 796.371,1100.7 798,1127.5C 800.294,1146.22 794.46,1161.72 780.5,1174C 760.076,1185.01 741.909,1182.18 726,1165.5C 713.607,1143.55 713.607,1121.55 726,1099.5C 733.938,1090.61 743.771,1085.61 755.5,1084.5 Z"/></g>
<g><path style="opacity:0.935" fill="#000000" d="M 836.5,1071.5 C 842.167,1071.5 847.833,1071.5 853.5,1071.5C 853.5,1088.17 853.5,1104.83 853.5,1121.5C 874.167,1121.5 894.833,1121.5 915.5,1121.5C 915.5,1104.83 915.5,1088.17 915.5,1071.5C 921.167,1071.5 926.833,1071.5 932.5,1071.5C 932.5,1112.5 932.5,1153.5 932.5,1194.5C 926.833,1194.5 921.167,1194.5 915.5,1194.5C 915.5,1175.5 915.5,1156.5 915.5,1137.5C 894.833,1137.5 874.167,1137.5 853.5,1137.5C 853.5,1156.5 853.5,1175.5 853.5,1194.5C 847.833,1194.5 842.167,1194.5 836.5,1194.5C 836.5,1153.5 836.5,1112.5 836.5,1071.5 Z"/></g>
</svg>
