<?xml version="1.0" encoding="UTF-8"?>
<!DOCTYPE svg PUBLIC "-//W3C//DTD SVG 1.1//EN" "http://www.w3.org/Graphics/SVG/1.1/DTD/svg11.dtd">
<svg xmlns="http://www.w3.org/2000/svg" version="1.1" width="1100px" height="1647px" style="shape-rendering:geometricPrecision; text-rendering:geometricPrecision; image-rendering:optimizeQuality; fill-rule:evenodd; clip-rule:evenodd" xmlns:xlink="http://www.w3.org/1999/xlink">
<g><path style="opacity:0.94" fill="#000000" d="M 49.5,49.5 C 55.5368,49.1707 61.5368,49.5041 67.5,50.5C 86.4706,79.3028 105.637,107.969 125,136.5C 124.517,107.581 124.35,78.5805 124.5,49.5C 130.167,49.5 135.833,49.5 141.5,49.5C 141.5,88.5 141.5,127.5 141.5,166.5C 135.463,166.829 129.463,166.496 123.5,165.5C 104.137,136.636 84.9703,107.636 66,78.5C 65.5,107.831 65.3334,137.165 65.5,166.5C 60.1667,166.5 54.8333,166.5 49.5,166.5C 49.5,127.5 49.5,88.5 49.5,49.5 Z"/></g>
<g><path style="opacity:0.948" fill="#000000" d="M 165.5,49.5 C 171.167,49.5 176.833,49.5 182.5,49.5C 182.5,65.5 182.5,81.5 182.5,97.5C 202.5,97.5 222.5,97.5 242.5,97.5C 242.5,81.5 242.5,65.5 242.5,49.5C 247.833,49.5 253.167,49.5 258.5,49.5C 258.5,88.5 258.5,127.5 258.5,166.5C 253.167,166.5 247.833,166.5 242.5,166.5C 242.5,148.167 242.5,129.833 242.5,111.5C 222.5,111.5 202.5,111.5 182.5,111.5C 182.5,129.833 182.5,148.167 182.5,166.5C 176.833,166.5 171.167,166.5 165.5,166.5C 165.5,127.5 165.5,88.5 165.5,49.5 Z"/></g>
<g><path style="opacity:0.894" fill="#000000" d="M 301.5,111.5 C 322.556,111.385 332.39,121.719 331,142.5C 329.81,147.213 327.81,151.547 325,155.5C 313.977,166.912 302.477,177.745 290.5,188C 304.496,188.5 318.496,188.667 332.5,188.5C 332.5,192.5 332.5,196.5 332.5,200.5C 312.833,200.5 293.167,200.5 273.5,200.5C 274.117,192.599 276.951,185.599 282,179.5C 292.333,169.833 302.667,160.167 313,150.5C 319.141,143.956 320.474,136.623 317,128.5C 312.032,122.885 305.865,121.052 298.5,123C 290.999,125.81 287.332,131.31 287.5,139.5C 276.895,142.161 273.395,138.494 277,128.5C 281.882,117.984 290.049,112.318 301.5,111.5 Z"/></g>
<g><path style="opacity:0.918" fill="#000000" d="M 88.5,181.5 C 92.5,181.5 96.5,181.5 100.5,181.5C 100.167,242.17 100.5,302.837 101.5,363.5C 175.638,406.739 249.971,449.739 324.5,492.5C 325.333,579.165 325.833,665.831 326,752.5C 406.269,799.139 486.602,845.806 567,892.5C 567.005,904.419 566.171,916.252 564.5,928C 565.116,929.4 565.449,930.9 565.5,932.5C 560.047,1002.68 555.214,1072.68 551,1142.5C 617.414,1181.1 683.914,1219.44 750.5,1257.5C 806.697,1226.14 862.53,1194.14 918,1161.5C 919.667,1164.17 921.333,1166.83 923,1169.5C 923.749,1170.64 923.583,1171.64 922.5,1172.5C 869.284,1203.55 815.951,1234.38 762.5,1265C 767.081,1266.87 771.248,1269.37 775,1272.5C 775.333,1277.83 775.667,1283.17 776,1288.5C 829.619,1257.43 883.452,1226.43 937.5,1195.5C 939.628,1198.03 941.294,1200.87 942.5,1204C 942.215,1205.89 941.215,1207.22 939.5,1208C 885.114,1239.61 830.614,1271.11 776,1302.5C 775.5,1355.17 775.333,1407.83 775.5,1460.5C 771.5,1460.5 767.5,1460.5 763.5,1460.5C 763.667,1400.17 763.5,1339.83 763,1279.5C 690.545,1237.27 617.878,1195.27 545,1153.5C 494.938,1181.89 445.105,1210.72 395.5,1240C 394.5,1240.67 393.5,1240.67 392.5,1240C 390.817,1236.99 389.15,1233.99 387.5,1231C 390.959,1228.1 394.626,1225.43 398.5,1223C 445.116,1196.94 491.616,1170.44 538,1143.5C 533.223,1058.79 527.389,973.959 520.5,889C 522.059,885.62 521.726,882.453 519.5,879.5C 451.188,839.52 382.854,799.854 314.5,760.5C 313.833,673.5 313.167,586.5 312.5,499.5C 237.918,456.626 163.418,413.626 89,370.5C 88.5,307.501 88.3333,244.501 88.5,181.5 Z"/></g>
<g><path style="opacity:0.917" fill="#000000" d="M 982.5,1086.5 C 1010.07,1082.54 1030.57,1092.54 1044,1116.5C 1045.53,1120.09 1046.86,1123.76 1048,1127.5C 1049.55,1138.78 1049.88,1150.12 1049,1161.5C 1040.71,1194.43 1019.55,1209.6 985.5,1207C 961.703,1202.21 946.536,1188.04 940,1164.5C 935.613,1143.21 939.28,1123.54 951,1105.5C 959.674,1095.92 970.174,1089.59 982.5,1086.5 Z M 991.5,1100.5 C 1013.46,1101.22 1026.96,1112.22 1032,1133.5C 1034.48,1147.69 1032.81,1161.36 1027,1174.5C 1017.38,1189.09 1003.88,1194.92 986.5,1192C 969.03,1187.53 958.864,1176.36 956,1158.5C 953.532,1142.29 956.532,1127.29 965,1113.5C 972.458,1106.19 981.292,1101.86 991.5,1100.5 Z"/></g>
<g><path style="opacity:0.916" fill="#000000" d="M 88.5,1218.5 C 94.1667,1218.5 99.8333,1218.5 105.5,1218.5C 105.5,1234.5 105.5,1250.5 105.5,1266.5C 125.167,1266.5 144.833,1266.5 164.5,1266.5C 164.5,1250.5 164.5,1234.5 164.5,1218.5C 170.167,1218.5 175.833,1218.5 181.5,1218.5C 181.5,1257.5 181.5,1296.5 181.5,1335.5C 175.833,1335.5 170.167,1335.5 164.5,1335.5C 164.5,1317.5 164.5,1299.5 164.5,1281.5C 144.833,1281.5 125.167,1281.5 105.5,1281.5C 105.5,1299.5 105.5,1317.5 105.5,1335.5C 99.8333,1335.5 94.1667,1335.5 88.5,1335.5C 88.5,1296.5 88.5,1257.5 88.5,1218.5 Z"/></g>
<g><path style="opacity:0.938" fill="#000000" d="M 273.5,1218.5 C 279.758,1218.19 285.924,1218.52 292,1219.5C 311,1248.17 330,1276.83 349,1305.5C 349.5,1276.5 349.667,1247.5 349.5,1218.5C 355.167,1218.5 360.833,1218.5 366.5,1218.5C 366.5,1257.5 366.5,1296.5 366.5,1335.5C 360.491,1335.67 354.491,1335.5 348.5,1335C 328.628,1306.09 309.128,1276.92 290,1247.5C 289.5,1276.83 289.333,1306.16 289.5,1335.5C 284.167,1335.5 278.833,1335.5 273.5,1335.5C 273.5,1296.5 273.5,1257.5 273.5,1218.5 Z"/></g>
<g><path style="opacity:0.876" fill="#000000" d="M 217.5,1281.5 C 231.949,1278.48 243.449,1282.81 252,1294.5C 256.249,1305.83 254.583,1316.16 247,1325.5C 235.807,1336.03 224.64,1346.53 213.5,1357C 227.163,1357.5 240.829,1357.67 254.5,1357.5C 254.5,1361.83 254.5,1366.17 254.5,1370.5C 235.167,1370.5 215.833,1370.5 196.5,1370.5C 196.743,1362.68 199.243,1355.68 204,1349.5C 214.333,1339.83 224.667,1330.17 235,1320.5C 239.03,1316.29 241.53,1311.29 242.5,1305.5C 238.912,1293.2 230.912,1289.04 218.5,1293C 216.376,1294.12 214.543,1295.62 213,1297.5C 211.455,1301.49 210.122,1305.49 209,1309.5C 205.534,1308.8 202.034,1308.13 198.5,1307.5C 198.585,1294.4 204.918,1285.73 217.5,1281.5 Z"/></g>
<g><path style="opacity:0.914" fill="#000000" d="M 760.5,1475.5 C 801.561,1474.73 823.228,1494.89 825.5,1536C 823.397,1579.44 800.731,1599.44 757.5,1596C 728.099,1587.57 713.433,1567.9 713.5,1537C 712.985,1503.77 728.652,1483.27 760.5,1475.5 Z M 763.5,1490.5 C 786.918,1489.09 801.418,1499.76 807,1522.5C 810.228,1538.93 807.562,1554.27 799,1568.5C 786.975,1581.42 772.475,1585.25 755.5,1580C 741.306,1573.79 733.139,1562.96 731,1547.5C 728.827,1532.7 731.161,1518.7 738,1505.5C 744.968,1497.66 753.468,1492.66 763.5,1490.5 Z"/></g>
<g><path style="opacity:0.911" fill="#000000" d="M 845.5,1477.5 C 851.167,1477.5 856.833,1477.5 862.5,1477.5C 862.5,1493.5 862.5,1509.5 862.5,1525.5C 882.167,1525.5 901.833,1525.5 921.5,1525.5C 921.5,1509.5 921.5,1493.5 921.5,1477.5C 927.167,1477.5 932.833,1477.5 938.5,1477.5C 938.5,1516.83 938.5,1556.17 938.5,1595.5C 932.833,1595.5 927.167,1595.5 921.5,1595.5C 921.5,1577.17 921.5,1558.83 921.5,1540.5C 901.833,1540.5 882.167,1540.5 862.5,1540.5C 862.5,1558.83 862.5,1577.17 862.5,1595.5C 856.833,1595.5 851.167,1595.5 845.5,1595.5C 845.5,1556.17 845.5,1516.83 845.5,1477.5 Z"/></g>
</svg>
