<?xml version="1.0" encoding="UTF-8"?>
<!DOCTYPE svg PUBLIC "-//W3C//DTD SVG 1.1//EN" "http://www.w3.org/Graphics/SVG/1.1/DTD/svg11.dtd">
<svg xmlns="http://www.w3.org/2000/svg" version="1.1" width="1100px" height="1386px" style="shape-rendering:geometricPrecision; text-rendering:geometricPrecision; image-rendering:optimizeQuality; fill-rule:evenodd; clip-rule:evenodd" xmlns:xlink="http://www.w3.org/1999/xlink">
<g><path style="opacity:0.899" fill="#000000" d="M 57.5,49.5 C 115.34,81.685 172.673,114.685 229.5,148.5C 227.851,152.464 225.684,156.131 223,159.5C 165.712,126.38 108.546,93.0467 51.5,59.5C 53.9613,56.3882 55.9613,53.0548 57.5,49.5 Z"/></g>
<g><path style="opacity:0.915" fill="#000000" d="M 280.5,127.5 C 295.175,125.832 308.842,128.665 321.5,136C 330.844,143.188 335.511,152.688 335.5,164.5C 329.816,165.473 324.15,165.473 318.5,164.5C 315.343,149.195 305.843,141.862 290,142.5C 282.707,142.698 275.874,144.531 269.5,148C 261.568,156.074 261.568,164.074 269.5,172C 284.626,177.282 299.959,181.949 315.5,186C 338.97,197.375 344.47,214.542 332,237.5C 325.08,245.879 316.247,251.045 305.5,253C 296.5,253.667 287.5,253.667 278.5,253C 254.879,248.551 242.545,234.385 241.5,210.5C 246.833,210.5 252.167,210.5 257.5,210.5C 259.785,227.282 269.451,236.448 286.5,238C 295.198,238.939 303.532,237.606 311.5,234C 320.429,227.78 322.929,219.613 319,209.5C 316.292,205.896 312.792,203.396 308.5,202C 294.41,198.311 280.41,194.311 266.5,190C 245.794,179.742 240.627,164.242 251,143.5C 258.857,134.325 268.691,128.991 280.5,127.5 Z"/></g>
<g><path style="opacity:0.924" fill="#000000" d="M 283.5,269.5 C 287.5,269.5 291.5,269.5 295.5,269.5C 295.333,331.834 295.5,394.168 296,456.5C 379.717,505.188 463.384,553.855 547,602.5C 541.401,689.148 536.068,775.815 531,862.5C 599.704,902.7 668.537,942.7 737.5,982.5C 795.951,949.106 854.284,915.439 912.5,881.5C 914.307,885.133 916.307,888.633 918.5,892C 863.037,925.436 807.037,958.103 750.5,990C 754.942,992.268 759.276,994.768 763.5,997.5C 764.167,1002.83 764.833,1008.17 765.5,1013.5C 820.437,981.776 875.437,949.942 930.5,918C 931.5,917.333 932.5,917.333 933.5,918C 934.925,920.553 936.425,923.053 938,925.5C 938.781,926.944 938.614,928.277 937.5,929.5C 880.102,962.528 822.769,995.528 765.5,1028.5C 764.5,1083.5 764.167,1138.5 764.5,1193.5C 760.167,1193.5 755.833,1193.5 751.5,1193.5C 751.833,1130.5 751.5,1067.5 750.5,1004.5C 675.037,960.931 599.37,917.598 523.5,874.5C 471.871,904.317 420.204,934.151 368.5,964C 367.5,964.667 366.5,964.667 365.5,964C 363.106,961.271 361.106,958.271 359.5,955C 361.778,952.523 364.445,950.523 367.5,949C 417.643,920.518 467.476,891.685 517,862.5C 510.646,772.397 504.646,682.397 499,592.5C 498.798,590.744 498.298,589.078 497.5,587.5C 426.209,546.868 355.043,505.868 284,464.5C 283.5,399.501 283.333,334.501 283.5,269.5 Z"/></g>
<g><path style="opacity:0.921" fill="#000000" d="M 979.5,804.5 C 1016.82,800.35 1039.98,816.35 1049,852.5C 1053.6,877.294 1047.43,898.794 1030.5,917C 1008.25,932.996 984.917,934.662 960.5,922C 939.746,905.972 930.912,884.805 934,858.5C 937.167,830.182 952.334,812.182 979.5,804.5 Z M 985.5,819.5 C 1012.17,818.577 1027.67,831.243 1032,857.5C 1034.2,872.491 1031.53,886.491 1024,899.5C 1007.66,916.584 989.164,919.417 968.5,908C 953.862,894.323 948.362,877.49 952,857.5C 954.247,836.764 965.413,824.097 985.5,819.5 Z"/></g>
<g><path style="opacity:0.951" fill="#000000" d="M 49.5,941.5 C 55.1667,941.5 60.8333,941.5 66.5,941.5C 66.5,958.167 66.5,974.833 66.5,991.5C 87.1667,991.5 107.833,991.5 128.5,991.5C 128.5,974.833 128.5,958.167 128.5,941.5C 134.167,941.5 139.833,941.5 145.5,941.5C 145.5,982.167 145.5,1022.83 145.5,1063.5C 139.833,1063.5 134.167,1063.5 128.5,1063.5C 128.5,1044.5 128.5,1025.5 128.5,1006.5C 107.833,1006.5 87.1667,1006.5 66.5,1006.5C 66.5,1025.5 66.5,1044.5 66.5,1063.5C 60.8333,1063.5 55.1667,1063.5 49.5,1063.5C 49.5,1022.83 49.5,982.167 49.5,941.5 Z"/></g>
<g><path style="opacity:0.946" fill="#000000" d="M 241.5,941.5 C 247.509,941.334 253.509,941.501 259.5,942C 279.791,972.081 299.957,1002.25 320,1032.5C 320.5,1002.17 320.667,971.835 320.5,941.5C 326.167,941.5 331.833,941.5 337.5,941.5C 337.5,982.167 337.5,1022.83 337.5,1063.5C 331.132,1063.83 324.798,1063.5 318.5,1062.5C 298.863,1032.36 279.03,1002.36 259,972.5C 258.5,1002.83 258.333,1033.16 258.5,1063.5C 252.833,1063.5 247.167,1063.5 241.5,1063.5C 241.5,1022.83 241.5,982.167 241.5,941.5 Z"/></g>
<g><path style="opacity:0.904" fill="#000000" d="M 183.5,1007.5 C 189.509,1007.33 195.509,1007.5 201.5,1008C 219.178,1014.33 225.012,1026.5 219,1044.5C 216.916,1048.34 214.583,1052 212,1055.5C 200.595,1066.12 189.095,1076.62 177.5,1087C 192.496,1087.5 207.496,1087.67 222.5,1087.5C 222.5,1091.5 222.5,1095.5 222.5,1099.5C 202.167,1099.5 181.833,1099.5 161.5,1099.5C 161.743,1091.68 164.243,1084.68 169,1078.5C 178.869,1068.39 189.202,1058.72 200,1049.5C 203.432,1045.64 206.099,1041.3 208,1036.5C 209.496,1024.86 204.329,1018.52 192.5,1017.5C 180.843,1018.49 175.177,1024.82 175.5,1036.5C 171.469,1036 167.469,1035.33 163.5,1034.5C 163.581,1020.69 170.248,1011.69 183.5,1007.5 Z"/></g>
<g><path style="opacity:0.919" fill="#000000" d="M 748.5,1209.5 C 784.879,1207.43 807.046,1224.09 815,1259.5C 818.567,1279.89 814.567,1298.55 803,1315.5C 787.524,1332.55 768.357,1339.05 745.5,1335C 721.605,1328.77 706.771,1313.6 701,1289.5C 697.213,1269.67 700.213,1251 710,1233.5C 719.852,1220.5 732.686,1212.5 748.5,1209.5 Z M 749.5,1225.5 C 774.816,1223.06 790.649,1234.06 797,1258.5C 799.548,1272.57 798.215,1286.23 793,1299.5C 783.145,1315.84 768.645,1322.67 749.5,1320C 731.701,1315.2 721.201,1303.7 718,1285.5C 715.865,1271.38 717.532,1257.72 723,1244.5C 729.227,1234.43 738.061,1228.09 749.5,1225.5 Z"/></g>
<g><path style="opacity:0.934" fill="#000000" d="M 837.5,1211.5 C 843.167,1211.5 848.833,1211.5 854.5,1211.5C 854.5,1228.17 854.5,1244.83 854.5,1261.5C 875.167,1261.5 895.833,1261.5 916.5,1261.5C 916.5,1244.83 916.5,1228.17 916.5,1211.5C 922.167,1211.5 927.833,1211.5 933.5,1211.5C 933.5,1252.5 933.5,1293.5 933.5,1334.5C 927.833,1334.5 922.167,1334.5 916.5,1334.5C 916.5,1315.5 916.5,1296.5 916.5,1277.5C 895.833,1277.5 875.167,1277.5 854.5,1277.5C 854.5,1296.5 854.5,1315.5 854.5,1334.5C 848.833,1334.5 843.167,1334.5 837.5,1334.5C 837.5,1293.5 837.5,1252.5 837.5,1211.5 Z"/></g>
</svg>
