<?xml version="1.0" encoding="UTF-8"?>
<!DOCTYPE svg PUBLIC "-//W3C//DTD SVG 1.1//EN" "http://www.w3.org/Graphics/SVG/1.1/DTD/svg11.dtd">
<svg xmlns="http://www.w3.org/2000/svg" version="1.1" width="1300px" height="1351px" style="shape-rendering:geometricPrecision; text-rendering:geometricPrecision; image-rendering:optimizeQuality; fill-rule:evenodd; clip-rule:evenodd" xmlns:xlink="http://www.w3.org/1999/xlink">
<g><path style="opacity:0.915" fill="#000000" d="M 281.5,49.5 C 282.873,49.3433 284.207,49.51 285.5,50C 362.415,94.3737 439.248,138.874 516,183.5C 516.333,271.167 516.667,358.833 517,446.5C 598.117,493.64 679.284,540.64 760.5,587.5C 760.833,590.167 761.167,592.833 761.5,595.5C 755.754,677.584 750.421,759.584 745.5,841.5C 812.515,880.586 879.682,919.252 947,957.5C 1003.36,925.067 1059.86,892.733 1116.5,860.5C 1118.63,863.034 1120.29,865.868 1121.5,869C 1121.21,870.89 1120.21,872.223 1118.5,873C 1064.92,903.298 1011.59,933.964 958.5,965C 962.908,967.07 967.075,969.57 971,972.5C 971.333,978.167 971.667,983.833 972,989.5C 1026.63,957.505 1081.3,925.505 1136,893.5C 1138.29,896.78 1140.12,900.28 1141.5,904C 1139.22,906.477 1136.56,908.477 1133.5,910C 1079.83,940.833 1026.17,971.667 972.5,1002.5C 971.5,1055.83 971.167,1109.16 971.5,1162.5C 967.833,1162.5 964.167,1162.5 960.5,1162.5C 960.833,1101.5 960.5,1040.5 959.5,979.5C 885.991,936.912 812.324,894.578 738.5,852.5C 687.721,881.392 637.055,910.559 586.5,940C 585.552,940.483 584.552,940.649 583.5,940.5C 582.457,937.409 581.123,934.409 579.5,931.5C 579.529,929.971 580.196,928.804 581.5,928C 631.333,899.5 681.167,871 731,842.5C 726.02,753.148 720.353,664.148 714,575.5C 646.572,535.735 578.906,496.402 511,457.5C 435.118,501.406 359.284,545.406 283.5,589.5C 205.702,544.766 128.035,499.766 50.5,454.5C 49.3333,364.169 49.1667,273.835 50,183.5C 127.396,138.873 204.562,94.2061 281.5,49.5 Z M 281.5,63.5 C 284.407,63.5752 287.073,64.4086 289.5,66C 360.787,107.892 432.287,149.392 504,190.5C 504.667,276.167 504.667,361.833 504,447.5C 430.445,489.695 356.945,532.029 283.5,574.5C 209.911,531.976 136.245,489.643 62.5,447.5C 61.1667,361.833 61.1667,276.167 62.5,190.5C 135.694,148.406 208.694,106.073 281.5,63.5 Z M 272.5,154.5 C 338.273,153.627 388.773,180.627 424,235.5C 454.137,291.167 453.97,346.833 423.5,402.5C 384.811,461.479 330.144,487.646 259.5,481C 188.754,467.205 143.587,426.372 124,358.5C 112.189,302.419 124.189,252.753 160,209.5C 190.585,177.132 228.085,158.799 272.5,154.5 Z"/></g>
<g><path style="opacity:0.899" fill="#000000" d="M 271.5,142.5 C 342.432,140.956 396.766,169.789 434.5,229C 457.555,269.652 464.055,313.486 454,360.5C 436.088,424.415 395.588,466.915 332.5,488C 254.903,506.495 191.07,484.995 141,423.5C 107.068,375.254 98.4016,322.254 115,264.5C 136.429,204.104 178.595,164.938 241.5,147C 251.58,145.01 261.58,143.51 271.5,142.5 Z M 272.5,154.5 C 228.085,158.799 190.585,177.132 160,209.5C 124.189,252.753 112.189,302.419 124,358.5C 143.587,426.372 188.754,467.205 259.5,481C 330.144,487.646 384.811,461.479 423.5,402.5C 453.97,346.833 454.137,291.167 424,235.5C 388.773,180.627 338.273,153.627 272.5,154.5 Z"/></g>
<g><path style="opacity:0.918" fill="#000000" d="M 1190.5,783.5 C 1222.33,783.825 1241.83,799.492 1249,830.5C 1252.09,849.282 1249.09,866.949 1240,883.5C 1231.59,895.629 1220.09,903.129 1205.5,906C 1169.28,910.155 1146.78,894.655 1138,859.5C 1134.6,839.141 1138.6,820.475 1150,803.5C 1160.74,791.046 1174.24,784.379 1190.5,783.5 Z M 1191.5,798.5 C 1212.01,798.848 1225.18,808.848 1231,828.5C 1235.23,845.819 1232.89,862.152 1224,877.5C 1213.72,889.149 1200.89,893.649 1185.5,891C 1168.03,886.528 1157.86,875.362 1155,857.5C 1152.21,840.908 1155.21,825.575 1164,811.5C 1171.74,803.983 1180.91,799.65 1191.5,798.5 Z"/></g>
<g><path style="opacity:0.923" fill="#000000" d="M 276.5,917.5 C 282.167,917.5 287.833,917.5 293.5,917.5C 293.5,933.833 293.5,950.167 293.5,966.5C 313.5,966.5 333.5,966.5 353.5,966.5C 353.5,950.167 353.5,933.833 353.5,917.5C 359.167,917.5 364.833,917.5 370.5,917.5C 370.5,957.167 370.5,996.833 370.5,1036.5C 364.833,1036.5 359.167,1036.5 353.5,1036.5C 353.5,1018.17 353.5,999.833 353.5,981.5C 333.5,981.5 313.5,981.5 293.5,981.5C 293.5,999.833 293.5,1018.17 293.5,1036.5C 287.833,1036.5 282.167,1036.5 276.5,1036.5C 276.5,996.833 276.5,957.167 276.5,917.5 Z"/></g>
<g><path style="opacity:0.957" fill="#000000" d="M 464.5,917.5 C 470.537,917.171 476.537,917.504 482.5,918.5C 502.196,947.697 521.696,977.031 541,1006.5C 541.5,976.835 541.667,947.169 541.5,917.5C 546.833,917.5 552.167,917.5 557.5,917.5C 557.5,957.167 557.5,996.833 557.5,1036.5C 551.463,1036.83 545.463,1036.5 539.5,1035.5C 519.804,1006.3 500.304,976.969 481,947.5C 480.5,977.165 480.333,1006.83 480.5,1036.5C 475.167,1036.5 469.833,1036.5 464.5,1036.5C 464.5,996.833 464.5,957.167 464.5,917.5 Z"/></g>
<g><path style="opacity:0.894" fill="#000000" d="M 409.5,981.5 C 425.299,978.817 436.799,984.483 444,998.5C 446.387,1011.17 442.887,1021.84 433.5,1030.5C 423.017,1039.82 412.683,1049.32 402.5,1059C 416.829,1059.5 431.163,1059.67 445.5,1059.5C 445.5,1063.5 445.5,1067.5 445.5,1071.5C 425.833,1071.5 406.167,1071.5 386.5,1071.5C 386.743,1063.68 389.243,1056.68 394,1050.5C 404.333,1040.83 414.667,1031.17 425,1021.5C 428.204,1017.63 430.538,1013.3 432,1008.5C 432.704,997.697 427.537,992.03 416.5,991.5C 405.857,992.809 400.524,998.809 400.5,1009.5C 396.176,1009.07 391.842,1008.74 387.5,1008.5C 388.303,994.042 395.636,985.042 409.5,981.5 Z"/></g>
<g><path style="opacity:0.917" fill="#000000" d="M 954.5,1178.5 C 989.545,1174.76 1011.71,1189.76 1021,1223.5C 1025.66,1245.55 1021.33,1265.55 1008,1283.5C 992.831,1298.44 974.664,1303.94 953.5,1300C 930.926,1293.76 916.76,1279.26 911,1256.5C 907.6,1238.8 909.6,1221.8 917,1205.5C 925.956,1191.45 938.456,1182.45 954.5,1178.5 Z M 957.5,1193.5 C 985.966,1191.8 1001.8,1205.13 1005,1233.5C 1006.36,1246.25 1004.03,1258.25 998,1269.5C 986.172,1284.48 971.006,1289.31 952.5,1284C 937.044,1277.2 928.544,1265.37 927,1248.5C 925.65,1235.28 927.65,1222.61 933,1210.5C 939.268,1201.96 947.434,1196.29 957.5,1193.5 Z"/></g>
<g><path style="opacity:0.924" fill="#000000" d="M 1042.5,1180.5 C 1048.17,1180.5 1053.83,1180.5 1059.5,1180.5C 1059.5,1196.5 1059.5,1212.5 1059.5,1228.5C 1079.5,1228.5 1099.5,1228.5 1119.5,1228.5C 1119.5,1212.5 1119.5,1196.5 1119.5,1180.5C 1125.17,1180.5 1130.83,1180.5 1136.5,1180.5C 1136.5,1220.17 1136.5,1259.83 1136.5,1299.5C 1130.83,1299.5 1125.17,1299.5 1119.5,1299.5C 1119.5,1280.83 1119.5,1262.17 1119.5,1243.5C 1099.5,1243.5 1079.5,1243.5 1059.5,1243.5C 1059.5,1262.17 1059.5,1280.83 1059.5,1299.5C 1053.83,1299.5 1048.17,1299.5 1042.5,1299.5C 1042.5,1259.83 1042.5,1220.17 1042.5,1180.5 Z"/></g>
</svg>
