<?xml version="1.0" encoding="UTF-8"?>
<!DOCTYPE svg PUBLIC "-//W3C//DTD SVG 1.1//EN" "http://www.w3.org/Graphics/SVG/1.1/DTD/svg11.dtd">
<svg xmlns="http://www.w3.org/2000/svg" version="1.1" width="1100px" height="939px" style="shape-rendering:geometricPrecision; text-rendering:geometricPrecision; image-rendering:optimizeQuality; fill-rule:evenodd; clip-rule:evenodd" xmlns:xlink="http://www.w3.org/1999/xlink">
<g><path style="opacity:0.922" fill="#000000" d="M 184.5,49.5 C 296.517,62.8028 408.517,76.3028 520.5,90C 521.624,90.2492 522.624,90.7492 523.5,91.5C 537.483,193.471 551.316,295.471 565,397.5C 623,442.167 681,486.833 739,531.5C 796.646,498.599 854.146,465.599 911.5,432.5C 913.881,435.43 915.881,438.597 917.5,442C 915.812,444.019 913.812,445.686 911.5,447C 857.825,478.014 804.158,509.014 750.5,540C 754.333,542.833 758.167,545.667 762,548.5C 762.333,554.167 762.667,559.833 763,565.5C 819.558,532.311 876.391,499.811 933.5,468C 933.167,468.333 932.833,468.667 932.5,469C 934.405,471.467 936.071,474.134 937.5,477C 937.167,477.833 936.833,478.667 936.5,479.5C 878.874,512.769 821.207,546.102 763.5,579.5C 762.5,635.163 762.167,690.829 762.5,746.5C 758.5,746.5 754.5,746.5 750.5,746.5C 750.833,682.83 750.5,619.163 749.5,555.5C 685.577,506.621 621.743,457.621 558,408.5C 492.755,445.208 427.255,481.541 361.5,517.5C 359.504,514.176 357.504,510.843 355.5,507.5C 420.852,470.825 486.185,434.159 551.5,397.5C 525.916,297.781 500.249,197.948 474.5,98C 380.984,86.1987 287.484,74.3654 194,62.5C 192.779,63.2718 191.779,64.2718 191,65.5C 149.936,155.853 107.77,246.353 64.5,337C 116.338,386.505 168.505,435.671 221,484.5C 219.252,488.283 216.586,491.616 213,494.5C 159.048,443.037 104.715,392.037 50,341.5C 50.0154,338.43 50.6821,335.43 52,332.5C 96.8725,238.008 141.039,143.674 184.5,49.5 Z"/></g>
<g><path style="opacity:0.921" fill="#000000" d="M 981.5,353.5 C 1017.59,350.766 1040.09,366.766 1049,401.5C 1053.25,424.6 1048.25,445.267 1034,463.5C 1012.83,482 989.328,485.5 963.5,474C 947.34,463.863 937.507,449.363 934,430.5C 930.124,408.008 935.291,388.008 949.5,370.5C 958.368,361.265 969.035,355.598 981.5,353.5 Z M 988.5,368.5 C 1018.22,370.733 1032.89,386.899 1032.5,417C 1030.97,454.562 1011.97,469.562 975.5,462C 958.316,452.821 949.982,438.321 950.5,418.5C 950.515,406.441 953.348,395.107 959,384.5C 966.857,375.325 976.691,369.991 988.5,368.5 Z"/></g>
<g><path style="opacity:0.93" fill="#000000" d="M 236.5,491.5 C 243.09,491.189 249.59,491.522 256,492.5C 276.248,522.662 296.248,552.995 316,583.5C 316.5,552.835 316.667,522.168 316.5,491.5C 322.167,491.5 327.833,491.5 333.5,491.5C 333.5,532.5 333.5,573.5 333.5,614.5C 327.491,614.666 321.491,614.499 315.5,614C 295.209,583.919 275.043,553.753 255,523.5C 254.5,553.832 254.333,584.165 254.5,614.5C 248.5,614.5 242.5,614.5 236.5,614.5C 236.5,573.5 236.5,532.5 236.5,491.5 Z"/></g>
<g><path style="opacity:0.934" fill="#000000" d="M 236.5,633.5 C 242.5,633.5 248.5,633.5 254.5,633.5C 254.5,650.5 254.5,667.5 254.5,684.5C 275.167,684.5 295.833,684.5 316.5,684.5C 316.5,667.5 316.5,650.5 316.5,633.5C 322.167,633.5 327.833,633.5 333.5,633.5C 333.5,674.5 333.5,715.5 333.5,756.5C 327.833,756.5 322.167,756.5 316.5,756.5C 316.5,737.5 316.5,718.5 316.5,699.5C 295.833,699.5 275.167,699.5 254.5,699.5C 254.5,718.5 254.5,737.5 254.5,756.5C 248.5,756.5 242.5,756.5 236.5,756.5C 236.5,715.5 236.5,674.5 236.5,633.5 Z"/></g>
<g><path style="opacity:0.919" fill="#000000" d="M 750.5,761.5 C 783.158,760.901 803.991,776.234 813,807.5C 818.111,831.128 813.444,852.461 799,871.5C 783.431,886.24 764.931,891.74 743.5,888C 717.041,880.871 701.874,863.704 698,836.5C 695.693,817.312 699.693,799.645 710,783.5C 720.529,770.489 734.029,763.156 750.5,761.5 Z M 750.5,777.5 C 773.444,776.288 788.278,786.621 795,808.5C 799.049,826.116 796.716,842.782 788,858.5C 774.142,873.274 757.642,877.107 738.5,870C 725.54,863.026 718.04,852.192 716,837.5C 713.964,822.884 715.964,808.884 722,795.5C 729.087,785.547 738.587,779.547 750.5,777.5 Z"/></g>
<g><path style="opacity:0.928" fill="#000000" d="M 836.5,763.5 C 842.167,763.5 847.833,763.5 853.5,763.5C 853.5,780.5 853.5,797.5 853.5,814.5C 874.167,814.5 894.833,814.5 915.5,814.5C 915.5,797.5 915.5,780.5 915.5,763.5C 921.167,763.5 926.833,763.5 932.5,763.5C 932.5,804.833 932.5,846.167 932.5,887.5C 926.833,887.5 921.167,887.5 915.5,887.5C 915.5,868.167 915.5,848.833 915.5,829.5C 894.833,829.5 874.167,829.5 853.5,829.5C 853.5,848.833 853.5,868.167 853.5,887.5C 847.575,887.808 841.741,887.475 836,886.5C 835.173,845.429 835.34,804.429 836.5,763.5 Z"/></g>
</svg>
