<?xml version="1.0" encoding="UTF-8"?>
<!DOCTYPE svg PUBLIC "-//W3C//DTD SVG 1.1//EN" "http://www.w3.org/Graphics/SVG/1.1/DTD/svg11.dtd">
<svg xmlns="http://www.w3.org/2000/svg" version="1.1" width="1100px" height="1036px" style="shape-rendering:geometricPrecision; text-rendering:geometricPrecision; image-rendering:optimizeQuality; fill-rule:evenodd; clip-rule:evenodd" xmlns:xlink="http://www.w3.org/1999/xlink">
<g><path style="opacity:0.919" fill="#000000" d="M 275.5,49.5 C 316.851,45.0896 340.684,63.4229 347,104.5C 349.009,126.137 342.843,144.97 328.5,161C 306.999,177.458 283.999,179.791 259.5,168C 240.399,154.804 230.732,136.471 230.5,113C 230.354,80.706 245.354,59.5393 275.5,49.5 Z M 281.5,64.5 C 308.306,62.8131 324.139,75.1465 329,101.5C 331.3,115.997 328.966,129.663 322,142.5C 311.69,156.549 297.857,162.049 280.5,159C 262.249,154.08 251.749,142.247 249,123.5C 246.995,109.213 248.995,95.5463 255,82.5C 261.636,73.1105 270.47,67.1105 281.5,64.5 Z"/></g>
<g><path style="opacity:0.922" fill="#000000" d="M 114.5,50.5 C 120.167,50.5 125.833,50.5 131.5,50.5C 131.5,67.5 131.5,84.5 131.5,101.5C 152.167,101.5 172.833,101.5 193.5,101.5C 193.5,84.5 193.5,67.5 193.5,50.5C 199.425,50.1918 205.259,50.5251 211,51.5C 211.5,92.1653 211.667,132.832 211.5,173.5C 205.5,173.5 199.5,173.5 193.5,173.5C 193.5,154.5 193.5,135.5 193.5,116.5C 172.833,116.5 152.167,116.5 131.5,116.5C 131.5,135.5 131.5,154.5 131.5,173.5C 125.833,173.5 120.167,173.5 114.5,173.5C 114.5,132.5 114.5,91.5 114.5,50.5 Z"/></g>
<g><path style="opacity:0.916" fill="#000000" d="M 358.5,144.5 C 421.527,180.2 484.694,216.533 548,253.5C 542.273,339.311 536.439,425.144 530.5,511C 530.833,511.833 531.167,512.667 531.5,513.5C 599.673,553.579 668.507,593.246 738,632.5C 796.307,599.291 854.473,565.957 912.5,532.5C 914.563,535.388 916.397,538.388 918,541.5C 918.749,542.635 918.583,543.635 917.5,544.5C 861.796,576.524 806.463,608.357 751.5,640C 755.753,642.71 759.92,645.543 764,648.5C 764.333,653.833 764.667,659.167 765,664.5C 820.522,632.26 876.355,599.927 932.5,567.5C 934.532,570.368 936.365,573.368 938,576.5C 938.749,577.635 938.583,578.635 937.5,579.5C 879.989,613.064 822.323,646.064 764.5,678.5C 764.5,733.833 764.5,789.167 764.5,844.5C 760.233,844.797 756.066,844.464 752,843.5C 751.833,780.831 751.333,718.164 750.5,655.5C 675.142,611.654 599.642,567.988 524,524.5C 472.421,555.034 420.587,585.201 368.5,615C 367.365,615.749 366.365,615.583 365.5,614.5C 363.444,611.555 361.777,608.388 360.5,605C 360.833,604.5 361.167,604 361.5,603.5C 412.651,574.041 464.318,544.041 516.5,513.5C 516.833,512.667 517.167,511.833 517.5,511C 511.547,425.514 505.714,340.014 500,254.5C 499.853,249.039 499.02,243.706 497.5,238.5C 449.961,211.577 401.961,183.911 353.5,155.5C 352.417,154.635 352.251,153.635 353,152.5C 354.596,149.631 356.43,146.964 358.5,144.5 Z"/></g>
<g><path style="opacity:0.92" fill="#000000" d="M 983.5,454.5 C 1019.29,452.488 1041.13,468.821 1049,503.5C 1053.81,529.719 1046.65,551.886 1027.5,570C 1009.32,581.279 989.983,583.612 969.5,577C 945.616,565.266 933.616,545.933 933.5,519C 933.268,501.056 938.768,485.223 950,471.5C 959.593,462.454 970.759,456.788 983.5,454.5 Z M 983.5,470.5 C 1008.4,467.925 1024.23,478.591 1031,502.5C 1034.49,518.597 1032.49,533.93 1025,548.5C 1015.07,561.544 1001.9,567.044 985.5,565C 968.195,561.694 957.362,551.528 953,534.5C 950.316,520.206 951.316,506.206 956,492.5C 961.77,480.894 970.937,473.56 983.5,470.5 Z"/></g>
<g><path style="opacity:0.943" fill="#000000" d="M 49.5,591.5 C 55.0934,591.193 60.5934,591.527 66,592.5C 66.4999,609.163 66.6666,625.83 66.5,642.5C 87.1667,642.5 107.833,642.5 128.5,642.5C 128.5,625.5 128.5,608.5 128.5,591.5C 134.093,591.193 139.593,591.527 145,592.5C 145.5,633.165 145.667,673.832 145.5,714.5C 139.833,714.5 134.167,714.5 128.5,714.5C 128.5,695.5 128.5,676.5 128.5,657.5C 107.833,657.5 87.1667,657.5 66.5,657.5C 66.5,676.5 66.5,695.5 66.5,714.5C 60.8333,714.5 55.1667,714.5 49.5,714.5C 49.5,673.5 49.5,632.5 49.5,591.5 Z"/></g>
<g><path style="opacity:0.909" fill="#000000" d="M 242.5,591.5 C 248.176,591.334 253.843,591.501 259.5,592C 280.287,621.736 300.453,651.903 320,682.5C 320.333,652.5 320.667,622.5 321,592.5C 326.667,591.167 332.333,591.167 338,592.5C 338.5,633.165 338.667,673.832 338.5,714.5C 332.132,714.83 325.798,714.496 319.5,713.5C 299.418,683.672 279.585,653.672 260,623.5C 259.5,653.832 259.333,684.165 259.5,714.5C 253.5,714.5 247.5,714.5 241.5,714.5C 241.173,673.428 241.506,632.428 242.5,591.5 Z"/></g>
<g><path style="opacity:0.883" fill="#000000" d="M 185.5,657.5 C 197.702,655.735 208.202,659.068 217,667.5C 224.303,681.64 222.637,694.64 212,706.5C 201.117,717.017 189.951,727.184 178.5,737C 193.163,737.5 207.83,737.667 222.5,737.5C 222.5,741.833 222.5,746.167 222.5,750.5C 202.257,750.827 182.091,750.493 162,749.5C 162.859,738.613 167.359,729.447 175.5,722C 185.988,713.511 195.821,704.345 205,694.5C 212.204,683.464 210.037,674.964 198.5,669C 185.105,666.686 177.438,672.186 175.5,685.5C 171.575,685.998 167.575,685.998 163.5,685.5C 163.822,670.525 171.155,661.192 185.5,657.5 Z"/></g>
<g><path style="opacity:0.921" fill="#000000" d="M 749.5,859.5 C 784.881,857.77 806.714,874.103 815,908.5C 819.751,934.706 812.585,956.872 793.5,975C 778.945,984.97 762.945,988.303 745.5,985C 718.634,977.791 703.467,960.291 700,932.5C 697.42,910.627 703.253,891.46 717.5,875C 726.81,866.844 737.477,861.677 749.5,859.5 Z M 750.5,875.5 C 782.434,874.933 798.434,890.766 798.5,923C 797.178,959.962 778.511,974.962 742.5,968C 728.412,961.668 720.245,950.834 718,935.5C 715.638,920.03 717.971,905.363 725,891.5C 731.618,883.027 740.118,877.693 750.5,875.5 Z"/></g>
<g><path style="opacity:0.911" fill="#000000" d="M 836.5,861.5 C 842.167,861.5 847.833,861.5 853.5,861.5C 853.5,878.167 853.5,894.833 853.5,911.5C 874.167,911.5 894.833,911.5 915.5,911.5C 915.5,894.833 915.5,878.167 915.5,861.5C 921.425,861.192 927.259,861.525 933,862.5C 933.667,902.833 933.667,943.167 933,983.5C 927.259,984.475 921.425,984.808 915.5,984.5C 915.5,965.5 915.5,946.5 915.5,927.5C 894.833,927.5 874.167,927.5 853.5,927.5C 853.5,946.5 853.5,965.5 853.5,984.5C 847.833,984.5 842.167,984.5 836.5,984.5C 836.5,943.5 836.5,902.5 836.5,861.5 Z"/></g>
</svg>
