<?xml version="1.0" encoding="UTF-8"?>
<!DOCTYPE svg PUBLIC "-//W3C//DTD SVG 1.1//EN" "http://www.w3.org/Graphics/SVG/1.1/DTD/svg11.dtd">
<svg xmlns="http://www.w3.org/2000/svg" version="1.1" width="2520px" height="2240px" style="shape-rendering:geometricPrecision; text-rendering:geometricPrecision; image-rendering:optimizeQuality; fill-rule:evenodd; clip-rule:evenodd" xmlns:xlink="http://www.w3.org/1999/xlink">
<g><path style="opacity:0.968" fill="#000000" d="M 640.5,142.5 C 682.444,141.304 717.611,155.971 746,186.5C 768.734,216.205 779.567,249.872 778.5,287.5C 779.722,327.34 767.556,362.34 742,392.5C 705.69,425.874 663.19,437.707 614.5,428C 568.423,416.253 537.257,388.087 521,343.5C 510.034,306.963 509.701,270.297 520,233.5C 534.465,188.701 564.298,159.868 609.5,147C 619.881,144.779 630.214,143.279 640.5,142.5 Z M 635.5,175.5 C 679.638,173.188 711.138,191.855 730,231.5C 743.519,268.033 743.852,304.7 731,341.5C 711.488,383.182 678.655,402.015 632.5,398C 593.156,390.657 567.656,367.824 556,329.5C 549.53,299.021 550.197,268.688 558,238.5C 566.517,211.316 584.017,192.483 610.5,182C 618.762,179.019 627.095,176.853 635.5,175.5 Z"/></g>
<g><path style="opacity:0.965" fill="#000000" d="M 244.5,147.5 C 257.167,147.5 269.833,147.5 282.5,147.5C 282.5,185.5 282.5,223.5 282.5,261.5C 330.167,261.5 377.833,261.5 425.5,261.5C 425.5,223.5 425.5,185.5 425.5,147.5C 438.167,147.5 450.833,147.5 463.5,147.5C 463.5,240.5 463.5,333.5 463.5,426.5C 450.833,426.5 438.167,426.5 425.5,426.5C 425.5,382.833 425.5,339.167 425.5,295.5C 377.833,295.5 330.167,295.5 282.5,295.5C 282.5,339.167 282.5,382.833 282.5,426.5C 269.833,426.5 257.167,426.5 244.5,426.5C 244.5,333.5 244.5,240.5 244.5,147.5 Z"/></g>
<g><path style="opacity:0.969" fill="#000000" d="M 1553.5,266.5 C 1565.82,265.649 1570.98,271.315 1569,283.5C 1567.88,285.624 1566.38,287.457 1564.5,289C 1404.92,381.04 1245.42,473.207 1086,565.5C 1085.17,747.168 1085.33,928.834 1086.5,1110.5C 1243.66,1200.91 1400.66,1291.58 1557.5,1382.5C 1655.17,1326 1752.83,1269.5 1850.5,1213C 1855.27,1209.27 1860.61,1207.94 1866.5,1209C 1873.01,1212.17 1875.51,1217.33 1874,1224.5C 1873.12,1227.1 1871.62,1229.27 1869.5,1231C 1786.58,1278.71 1703.75,1326.54 1621,1374.5C 1620.67,1494.83 1620.33,1615.17 1620,1735.5C 1615.45,1743.81 1608.95,1745.64 1600.5,1741C 1598.95,1739.79 1597.78,1738.29 1597,1736.5C 1596.67,1620.5 1596.33,1504.5 1596,1388.5C 1586.17,1394.33 1576.33,1400.17 1566.5,1406C 1560.5,1409.33 1554.5,1409.33 1548.5,1406C 1538.75,1400.04 1528.92,1394.21 1519,1388.5C 1518.67,1504.5 1518.33,1620.5 1518,1736.5C 1512.97,1743.87 1506.47,1745.37 1498.5,1741C 1496.96,1739.42 1495.79,1737.59 1495,1735.5C 1494.67,1615.17 1494.33,1494.83 1494,1374.5C 1354.83,1294 1215.67,1213.5 1076.5,1133C 1075.17,1132.33 1073.83,1132.33 1072.5,1133C 976.284,1206.88 879.784,1280.38 783,1353.5C 763.293,1319.25 743.46,1285.08 723.5,1251C 835.824,1203 948.49,1155.84 1061.5,1109.5C 1061.33,924.166 1061.5,738.833 1062,553.5C 1062.67,552.167 1063.33,550.833 1064,549.5C 1227.15,455.014 1390.31,360.68 1553.5,266.5 Z"/></g>
<g><path style="opacity:0.941" fill="#000000" d="M 841.5,356.5 C 848.675,360.494 855.175,365.494 861,371.5C 861.315,372.908 860.982,374.241 860,375.5C 842.667,405.5 825.333,435.5 808,465.5C 807.261,466.574 806.261,467.241 805,467.5C 797.631,464.896 790.464,461.896 783.5,458.5C 802.857,424.445 822.19,390.445 841.5,356.5 Z"/></g>
<g><path style="opacity:0.935" fill="#000000" d="M 937.5,433.5 C 944.51,438.347 951.177,443.68 957.5,449.5C 945.333,470.5 933.167,491.5 921,512.5C 914.595,509.809 908.095,507.309 901.5,505C 900.09,504.632 899.09,503.799 898.5,502.5C 911.777,479.608 924.777,456.608 937.5,433.5 Z"/></g>
<g><path style="opacity:0.923" fill="#000000" d="M 1033.5,511.5 C 1040.72,515.713 1047.39,520.713 1053.5,526.5C 1047.5,536.5 1041.5,546.5 1035.5,556.5C 1027.6,553.813 1019.93,550.646 1012.5,547C 1019.64,535.221 1026.64,523.388 1033.5,511.5 Z"/></g>
<g><path style="opacity:0.969" fill="#000000" d="M 2022.5,981.5 C 2072.26,978.008 2112.42,995.674 2143,1034.5C 2163.76,1067.88 2172.09,1104.22 2168,1143.5C 2165.4,1181.2 2150.56,1213.03 2123.5,1239C 2080.43,1271.26 2033.43,1278.26 1982.5,1260C 1945.22,1243.39 1920.72,1215.56 1909,1176.5C 1900.69,1143.93 1900.35,1111.27 1908,1078.5C 1924.97,1021.02 1963.14,988.684 2022.5,981.5 Z M 2022.5,1014.5 C 2077.35,1011.53 2111.85,1036.53 2126,1089.5C 2132.03,1119.96 2130.36,1149.96 2121,1179.5C 2102.5,1220.51 2070.66,1239.68 2025.5,1237C 1986.12,1231.63 1959.96,1210.13 1947,1172.5C 1938.25,1138.25 1939.25,1104.25 1950,1070.5C 1964.12,1038.88 1988.29,1020.21 2022.5,1014.5 Z"/></g>
<g><path style="opacity:0.965" fill="#000000" d="M 2216.5,986.5 C 2229.17,986.5 2241.83,986.5 2254.5,986.5C 2254.5,1024.5 2254.5,1062.5 2254.5,1100.5C 2302.17,1100.5 2349.83,1100.5 2397.5,1100.5C 2397.5,1062.5 2397.5,1024.5 2397.5,986.5C 2410.17,986.5 2422.83,986.5 2435.5,986.5C 2435.5,1079.5 2435.5,1172.5 2435.5,1265.5C 2422.83,1265.5 2410.17,1265.5 2397.5,1265.5C 2397.5,1221.83 2397.5,1178.17 2397.5,1134.5C 2349.83,1134.5 2302.17,1134.5 2254.5,1134.5C 2254.5,1178.17 2254.5,1221.83 2254.5,1265.5C 2241.83,1265.5 2229.17,1265.5 2216.5,1265.5C 2216.5,1172.5 2216.5,1079.5 2216.5,986.5 Z"/></g>
<g><path style="opacity:0.97" fill="#000000" d="M 77.5,1265.5 C 90.1667,1265.5 102.833,1265.5 115.5,1265.5C 115.5,1303.83 115.5,1342.17 115.5,1380.5C 163.167,1380.5 210.833,1380.5 258.5,1380.5C 258.5,1342.17 258.5,1303.83 258.5,1265.5C 271.167,1265.5 283.833,1265.5 296.5,1265.5C 296.5,1358.5 296.5,1451.5 296.5,1544.5C 283.833,1544.5 271.167,1544.5 258.5,1544.5C 258.5,1500.83 258.5,1457.17 258.5,1413.5C 210.833,1413.5 163.167,1413.5 115.5,1413.5C 115.5,1457.17 115.5,1500.83 115.5,1544.5C 102.833,1544.5 90.1667,1544.5 77.5,1544.5C 77.5,1451.5 77.5,1358.5 77.5,1265.5 Z"/></g>
<g><path style="opacity:0.974" fill="#000000" d="M 478.5,1265.5 C 491.413,1265.18 504.246,1265.51 517,1266.5C 564.752,1338.34 612.752,1410.01 661,1481.5C 661.5,1409.5 661.667,1337.5 661.5,1265.5C 673.5,1265.5 685.5,1265.5 697.5,1265.5C 697.5,1358.5 697.5,1451.5 697.5,1544.5C 684.483,1544.83 671.483,1544.5 658.5,1543.5C 610.471,1471.97 562.637,1400.3 515,1328.5C 514.5,1400.5 514.333,1472.5 514.5,1544.5C 502.5,1544.5 490.5,1544.5 478.5,1544.5C 478.5,1451.5 478.5,1358.5 478.5,1265.5 Z"/></g>
<g><path style="opacity:0.956" fill="#000000" d="M 374.5,1426.5 C 398.849,1423.25 420.849,1428.75 440.5,1443C 460.518,1463.24 466.351,1487.07 458,1514.5C 452.93,1527.65 445.597,1539.32 436,1549.5C 415.06,1570.11 393.227,1589.61 370.5,1608C 362.097,1615.73 354.43,1624.07 347.5,1633C 385.499,1633.5 423.499,1633.67 461.5,1633.5C 461.5,1643.17 461.5,1652.83 461.5,1662.5C 409.833,1662.5 358.167,1662.5 306.5,1662.5C 305.925,1653.8 307.425,1645.47 311,1637.5C 319.17,1621 330.003,1606.5 343.5,1594C 368.268,1574.35 391.768,1553.18 414,1530.5C 423.917,1519 429.75,1505.66 431.5,1490.5C 428.01,1465.02 413.344,1451.68 387.5,1450.5C 358.511,1452.82 343.511,1468.49 342.5,1497.5C 332.43,1497.03 322.43,1496.03 312.5,1494.5C 314.829,1455.21 335.496,1432.54 374.5,1426.5 Z"/></g>
<g><path style="opacity:0.969" fill="#000000" d="M 1540.5,1820.5 C 1588.78,1815.42 1628.95,1830.75 1661,1866.5C 1682.2,1895.76 1692.36,1928.59 1691.5,1965C 1692.01,1996.45 1684.18,2025.62 1668,2052.5C 1646.62,2083.46 1617.12,2101.62 1579.5,2107C 1531.57,2113.47 1491.07,2099.3 1458,2064.5C 1431.29,2029.33 1420.62,1989.67 1426,1945.5C 1429.38,1900.2 1449.55,1864.7 1486.5,1839C 1503.33,1829.11 1521.33,1822.95 1540.5,1820.5 Z M 1550.5,1852.5 C 1601.16,1852.07 1633.66,1876.07 1648,1924.5C 1653.61,1950.09 1653.94,1975.76 1649,2001.5C 1636.8,2048.2 1606.64,2073.2 1558.5,2076.5C 1504.3,2071.8 1473.13,2042.47 1465,1988.5C 1461.38,1958.54 1465.04,1929.54 1476,1901.5C 1492.49,1872.51 1517.33,1856.18 1550.5,1852.5 Z"/></g>
</svg>
