<?xml version="1.0" encoding="UTF-8"?>
<!DOCTYPE svg PUBLIC "-//W3C//DTD SVG 1.1//EN" "http://www.w3.org/Graphics/SVG/1.1/DTD/svg11.dtd">
<svg xmlns="http://www.w3.org/2000/svg" version="1.1" width="1300px" height="1572px" style="shape-rendering:geometricPrecision; text-rendering:geometricPrecision; image-rendering:optimizeQuality; fill-rule:evenodd; clip-rule:evenodd" xmlns:xlink="http://www.w3.org/1999/xlink">
<g><path style="opacity:0.899" fill="#000000" d="M 402.5,49.5 C 483.128,65.9255 563.628,82.9255 644,100.5C 668.714,176.676 693.881,254.176 719.5,333C 666.373,393.295 612.707,453.128 558.5,512.5C 566.392,586.806 574.226,661.139 582,735.5C 582.356,739.146 583.189,742.646 584.5,746C 658.22,788.613 732.053,831.113 806,873.5C 801.192,950.036 796.192,1026.7 791,1103.5C 851.952,1138.81 912.952,1174.15 974,1209.5C 1025.5,1179.99 1077,1150.33 1128.5,1120.5C 1131.36,1123.83 1132.69,1127.5 1132.5,1131.5C 1083.96,1159.87 1035.3,1188.03 986.5,1216C 989.663,1218.42 992.996,1220.58 996.5,1222.5C 997.329,1227.47 997.829,1232.47 998,1237.5C 1047.58,1208.96 1097.08,1180.29 1146.5,1151.5C 1148.55,1154.44 1150.22,1157.6 1151.5,1161C 1100.89,1191.31 1049.89,1221.15 998.5,1250.5C 997.5,1299.16 997.167,1347.83 997.5,1396.5C 993.833,1396.5 990.167,1396.5 986.5,1396.5C 986.833,1340.83 986.5,1285.16 985.5,1229.5C 918.748,1190.71 851.915,1152.04 785,1113.5C 738.71,1140.57 692.21,1167.57 645.5,1194.5C 643.248,1191.66 641.248,1188.66 639.5,1185.5C 641.666,1183.51 643.999,1181.67 646.5,1180C 691.043,1155.15 735.21,1129.65 779,1103.5C 774.824,1034.16 769.991,964.989 764.5,896C 764.559,894.564 764.892,893.231 765.5,892C 764.342,881.493 763.008,870.993 761.5,860.5C 700.187,825.265 639.021,789.932 578,754.5C 504.969,787.262 431.802,819.928 358.5,852.5C 322.758,813.265 287.258,773.931 252,734.5C 253.368,731.086 255.701,728.086 259,725.5C 291.732,761.227 324.066,797.227 356,833.5C 357.708,835.543 359.708,837.21 362,838.5C 431.193,807.524 500.693,776.691 570.5,746C 571.116,744.6 571.449,743.1 571.5,741.5C 563.618,665.79 555.618,590.124 547.5,514.5C 472.163,499.195 396.996,483.195 322,466.5C 296.433,511.298 270.6,555.965 244.5,600.5C 240.905,598.898 237.571,596.898 234.5,594.5C 260.883,549.569 286.883,504.402 312.5,459C 288.172,383.674 263.505,308.007 238.5,232C 293.418,171.256 348.085,110.423 402.5,49.5 Z M 406.5,61.5 C 482.591,77.3475 558.591,93.5141 634.5,110C 659.046,184.89 683.379,258.557 707.5,331C 654.906,388.586 602.74,446.42 551,504.5C 475.607,488.087 400.107,471.921 324.5,456C 298.723,381.484 274.556,307.317 252,233.5C 303.742,176.323 355.242,118.99 406.5,61.5 Z"/></g>
<g><path style="opacity:0.888" fill="#000000" d="M 414.5,90.5 C 417.479,92.8123 420.146,95.4789 422.5,98.5C 377.916,146.911 333.916,195.745 290.5,245C 287.224,243.763 284.391,241.597 282,238.5C 281.333,237.833 281.333,237.167 282,236.5C 326.061,187.612 370.228,138.945 414.5,90.5 Z"/></g>
<g><path style="opacity:0.871" fill="#000000" d="M 614.5,133.5 C 615.5,133.5 616.5,133.5 617.5,133.5C 637.331,196.476 657.331,258.976 677.5,321C 674.724,324.323 671.058,325.823 666.5,325.5C 646.508,262.313 626.175,199.647 605.5,137.5C 608.703,136.394 611.703,135.061 614.5,133.5 Z"/></g>
<g><path style="opacity:0.887" fill="#000000" d="M 346.5,424.5 C 411.174,437.889 475.84,451.389 540.5,465C 541.357,468.197 541.357,471.197 540.5,474C 539.953,474.925 539.287,475.758 538.5,476.5C 474.958,462.575 411.292,449.075 347.5,436C 346.376,435.161 345.709,433.994 345.5,432.5C 346.095,429.86 346.428,427.193 346.5,424.5 Z"/></g>
<g><path style="opacity:0.918" fill="#000000" d="M 49.5,614.5 C 54.5,614.5 59.5,614.5 64.5,614.5C 64.5,629.167 64.5,643.833 64.5,658.5C 82.5,658.5 100.5,658.5 118.5,658.5C 118.5,643.833 118.5,629.167 118.5,614.5C 123.833,614.5 129.167,614.5 134.5,614.5C 134.5,650.5 134.5,686.5 134.5,722.5C 129.167,722.5 123.833,722.5 118.5,722.5C 118.5,705.833 118.5,689.167 118.5,672.5C 100.5,672.5 82.5,672.5 64.5,672.5C 64.5,689.167 64.5,705.833 64.5,722.5C 59.5,722.5 54.5,722.5 49.5,722.5C 49.5,686.5 49.5,650.5 49.5,614.5 Z"/></g>
<g><path style="opacity:0.943" fill="#000000" d="M 157.5,614.5 C 162.844,614.334 168.177,614.501 173.5,615C 191.726,641.562 209.559,668.395 227,695.5C 227.5,668.502 227.667,641.502 227.5,614.5C 232.5,614.5 237.5,614.5 242.5,614.5C 242.5,650.5 242.5,686.5 242.5,722.5C 237.156,722.666 231.823,722.499 226.5,722C 208.667,695.5 190.833,669 173,642.5C 172.5,669.165 172.333,695.831 172.5,722.5C 167.5,722.5 162.5,722.5 157.5,722.5C 157.5,686.5 157.5,650.5 157.5,614.5 Z"/></g>
<g><path style="opacity:0.884" fill="#000000" d="M 537.5,720.5 C 538.364,721.688 539.364,722.855 540.5,724C 540.167,724.333 539.833,724.667 539.5,725C 541.843,726.808 542.51,728.974 541.5,731.5C 484.894,756.799 428.228,782.133 371.5,807.5C 369.461,806.723 368.795,805.557 369.5,804C 367.259,801.798 366.592,799.298 367.5,796.5C 424.585,771.615 481.251,746.281 537.5,720.5 Z"/></g>
<g><path style="opacity:0.91" fill="#000000" d="M 1191.5,1051.5 C 1222.49,1050.23 1241.66,1064.56 1249,1094.5C 1252.4,1113.45 1248.73,1130.79 1238,1146.5C 1224.4,1160.37 1207.9,1165.87 1188.5,1163C 1166.14,1157.31 1152.64,1143.14 1148,1120.5C 1144.89,1101.95 1148.56,1084.95 1159,1069.5C 1167.66,1059.42 1178.5,1053.42 1191.5,1051.5 Z M 1194.5,1065.5 C 1217.79,1065.62 1230.96,1077.29 1234,1100.5C 1235.45,1112.46 1233.45,1123.8 1228,1134.5C 1218.59,1146.94 1206.09,1151.78 1190.5,1149C 1171.6,1142.58 1162.26,1129.24 1162.5,1109C 1161.22,1085.31 1171.88,1070.81 1194.5,1065.5 Z"/></g>
<g><path style="opacity:0.942" fill="#000000" d="M 365.5,1173.5 C 370.5,1173.5 375.5,1173.5 380.5,1173.5C 380.5,1188.17 380.5,1202.83 380.5,1217.5C 398.833,1217.5 417.167,1217.5 435.5,1217.5C 435.5,1202.83 435.5,1188.17 435.5,1173.5C 440.5,1173.5 445.5,1173.5 450.5,1173.5C 450.5,1209.5 450.5,1245.5 450.5,1281.5C 445.5,1281.5 440.5,1281.5 435.5,1281.5C 435.5,1264.83 435.5,1248.17 435.5,1231.5C 417.167,1231.5 398.833,1231.5 380.5,1231.5C 380.5,1248.17 380.5,1264.83 380.5,1281.5C 375.5,1281.5 370.5,1281.5 365.5,1281.5C 365.5,1245.5 365.5,1209.5 365.5,1173.5 Z"/></g>
<g><path style="opacity:0.942" fill="#000000" d="M 535.5,1173.5 C 541.206,1173.17 546.872,1173.5 552.5,1174.5C 569.804,1200.97 587.304,1227.3 605,1253.5C 605.5,1226.84 605.667,1200.17 605.5,1173.5C 610.5,1173.5 615.5,1173.5 620.5,1173.5C 620.5,1209.5 620.5,1245.5 620.5,1281.5C 615.156,1281.67 609.823,1281.5 604.5,1281C 586.274,1254.44 568.441,1227.61 551,1200.5C 550.5,1227.5 550.333,1254.5 550.5,1281.5C 545.5,1281.5 540.5,1281.5 535.5,1281.5C 535.5,1245.5 535.5,1209.5 535.5,1173.5 Z"/></g>
<g><path style="opacity:0.867" fill="#000000" d="M 484.5,1231.5 C 499.208,1228.61 510.042,1233.61 517,1246.5C 519.118,1256.17 517.118,1264.83 511,1272.5C 500.833,1282 490.667,1291.5 480.5,1301C 493.162,1301.5 505.829,1301.67 518.5,1301.5C 518.5,1305.5 518.5,1309.5 518.5,1313.5C 500.5,1313.5 482.5,1313.5 464.5,1313.5C 465.039,1306.09 467.539,1299.42 472,1293.5C 481.667,1284.5 491.333,1275.5 501,1266.5C 510.424,1253.61 507.59,1244.94 492.5,1240.5C 482.405,1241.6 477.071,1247.26 476.5,1257.5C 473.167,1256.83 469.833,1256.17 466.5,1255.5C 466.69,1243.29 472.69,1235.29 484.5,1231.5 Z"/></g>
<g><path style="opacity:0.912" fill="#000000" d="M 980.5,1410.5 C 1023.82,1408.98 1044.65,1429.98 1043,1473.5C 1037.36,1509.24 1016.52,1525.08 980.5,1521C 958.145,1515.51 944.978,1501.34 941,1478.5C 936.751,1454.58 943.585,1434.75 961.5,1419C 967.453,1415.08 973.786,1412.25 980.5,1410.5 Z M 989.5,1423.5 C 1015.73,1425.91 1028.4,1440.41 1027.5,1467C 1025.78,1498.75 1009.44,1511.75 978.5,1506C 966.568,1501.06 959.402,1492.23 957,1479.5C 954.153,1464.27 956.487,1449.93 964,1436.5C 971.109,1429.18 979.609,1424.84 989.5,1423.5 Z"/></g>
<g><path style="opacity:0.897" fill="#000000" d="M 1061.5,1412.5 C 1066.83,1412.5 1072.17,1412.5 1077.5,1412.5C 1077.5,1427.17 1077.5,1441.83 1077.5,1456.5C 1095.5,1456.5 1113.5,1456.5 1131.5,1456.5C 1131.5,1441.83 1131.5,1427.17 1131.5,1412.5C 1136.83,1412.5 1142.17,1412.5 1147.5,1412.5C 1147.5,1448.5 1147.5,1484.5 1147.5,1520.5C 1142.17,1520.5 1136.83,1520.5 1131.5,1520.5C 1131.5,1503.83 1131.5,1487.17 1131.5,1470.5C 1113.5,1470.5 1095.5,1470.5 1077.5,1470.5C 1077.5,1487.17 1077.5,1503.83 1077.5,1520.5C 1072.17,1520.5 1066.83,1520.5 1061.5,1520.5C 1061.5,1484.5 1061.5,1448.5 1061.5,1412.5 Z"/></g>
</svg>
