<?xml version="1.0" encoding="UTF-8"?>
<!DOCTYPE svg PUBLIC "-//W3C//DTD SVG 1.1//EN" "http://www.w3.org/Graphics/SVG/1.1/DTD/svg11.dtd">
<svg xmlns="http://www.w3.org/2000/svg" version="1.1" width="1600px" height="1330px" style="shape-rendering:geometricPrecision; text-rendering:geometricPrecision; image-rendering:optimizeQuality; fill-rule:evenodd; clip-rule:evenodd" xmlns:xlink="http://www.w3.org/1999/xlink">
<g><path style="opacity:0.912" fill="#000000" d="M 196.5,49.5 C 228.627,45.1286 249.794,58.1286 260,88.5C 264.54,106.593 262.54,123.926 254,140.5C 240.216,159.963 221.383,167.796 197.5,164C 175.591,158.424 162.091,144.591 157,122.5C 152.292,100.333 157.126,80.6664 171.5,63.5C 178.58,56.463 186.914,51.7964 196.5,49.5 Z M 201.5,63.5 C 225.513,61.4091 240.013,72.0757 245,95.5C 247.269,108.678 245.603,121.344 240,133.5C 225.517,151.827 208.017,155.327 187.5,144C 176.39,134.704 171.057,122.704 171.5,108C 170.044,84.9946 180.044,70.1612 201.5,63.5 Z"/></g>
<g><path style="opacity:0.947" fill="#000000" d="M 49.5,50.5 C 54.5,50.5 59.5,50.5 64.5,50.5C 64.5,65.8333 64.5,81.1667 64.5,96.5C 83.5,96.5 102.5,96.5 121.5,96.5C 121.5,81.1667 121.5,65.8333 121.5,50.5C 126.833,50.5 132.167,50.5 137.5,50.5C 137.5,87.8333 137.5,125.167 137.5,162.5C 132.167,162.5 126.833,162.5 121.5,162.5C 121.5,145.167 121.5,127.833 121.5,110.5C 102.5,110.5 83.5,110.5 64.5,110.5C 64.5,127.833 64.5,145.167 64.5,162.5C 59.5,162.5 54.5,162.5 49.5,162.5C 49.5,125.167 49.5,87.8333 49.5,50.5 Z"/></g>
<g><path style="opacity:0.893" fill="#000000" d="M 637.5,99.5 C 711.687,141.512 785.52,184.178 859,227.5C 859.167,310.169 859.667,392.835 860.5,475.5C 936.436,519.473 1012.44,563.473 1088.5,607.5C 1088.83,610 1089.17,612.5 1089.5,615C 1083.96,692.243 1078.96,769.41 1074.5,846.5C 1137.56,883.361 1200.89,919.694 1264.5,955.5C 1317.58,925.454 1370.58,895.12 1423.5,864.5C 1426.1,866.836 1428.1,869.67 1429.5,873C 1429.36,873.772 1429.02,874.439 1428.5,875C 1381.64,901.937 1335.31,928.937 1289.5,956C 1285.59,958.125 1281.59,959.958 1277.5,961.5C 1277.33,962.822 1277.66,963.989 1278.5,965C 1281.88,966.441 1285.05,968.274 1288,970.5C 1288.33,975.5 1288.67,980.5 1289,985.5C 1338.06,956.123 1387.56,927.29 1437.5,899C 1439.59,898.149 1441.59,897.482 1443.5,897C 1445.04,899.916 1446.71,902.749 1448.5,905.5C 1447.5,906.5 1446.5,907.5 1445.5,908.5C 1397.57,935.393 1349.9,962.893 1302.5,991C 1297.92,993.458 1293.25,995.624 1288.5,997.5C 1288.5,1048.17 1288.5,1098.83 1288.5,1149.5C 1284.5,1149.5 1280.5,1149.5 1276.5,1149.5C 1276.83,1091.83 1276.5,1034.16 1275.5,976.5C 1206.65,936.242 1137.65,896.242 1068.5,856.5C 1020.51,884.163 972.509,911.829 924.5,939.5C 921.747,937.911 919.914,935.578 919,932.5C 918.251,931.365 918.417,930.365 919.5,929.5C 966.673,902.415 1013.67,875.082 1060.5,847.5C 1061.41,846.672 1062.08,845.672 1062.5,844.5C 1056.75,765.86 1051.25,687.194 1046,608.5C 1045.89,603.676 1045.05,599.01 1043.5,594.5C 980.186,558.336 917.019,522.003 854,485.5C 782.465,526.63 710.799,567.63 639,608.5C 619.983,598.831 601.649,588.164 584,576.5C 528.797,545.456 473.464,513.789 418,481.5C 417.833,398.498 417.333,315.498 416.5,232.5C 366.186,204.011 316.186,175.011 266.5,145.5C 268.073,141.662 270.573,138.662 274,136.5C 323.979,165.903 374.146,194.903 424.5,223.5C 490.829,185.335 557.162,147.169 623.5,109C 628.406,106.058 633.072,102.891 637.5,99.5 Z M 637.5,113.5 C 641.642,114.859 645.642,116.693 649.5,119C 715.089,156.923 780.756,194.757 846.5,232.5C 847.667,313.498 847.833,394.498 847,475.5C 777.722,515.799 708.389,555.799 639,595.5C 569.038,555.463 499.538,515.463 430.5,475.5C 429.333,394.835 429.167,314.169 430,233.5C 499.327,193.65 568.493,153.65 637.5,113.5 Z M 622.5,200.5 C 686.329,197.165 735.829,221.832 771,274.5C 803.291,333.593 800.458,390.926 762.5,446.5C 720.422,497.47 666.922,516.804 602,504.5C 534.866,484.368 495.866,439.701 485,370.5C 481.171,306.661 505.671,257.161 558.5,222C 578.631,210.901 599.964,203.734 622.5,200.5 Z"/></g>
<g><path style="opacity:0.893" fill="#000000" d="M 628.5,188.5 C 696.622,186.814 748.455,215.148 784,273.5C 808.327,320.571 810.994,368.904 792,418.5C 761.317,483.106 710.15,517.106 638.5,520.5C 577.641,518.165 530.474,491.832 497,441.5C 465.92,386.168 464.587,330.168 493,273.5C 524.177,222.037 569.343,193.703 628.5,188.5 Z M 622.5,200.5 C 599.964,203.734 578.631,210.901 558.5,222C 505.671,257.161 481.171,306.661 485,370.5C 495.866,439.701 534.866,484.368 602,504.5C 666.922,516.804 720.422,497.47 762.5,446.5C 800.458,390.926 803.291,333.593 771,274.5C 735.829,221.832 686.329,197.165 622.5,200.5 Z"/></g>
<g><path style="opacity:0.913" fill="#000000" d="M 1485.5,792.5 C 1516.93,788.946 1537.76,801.946 1548,831.5C 1550.77,847.117 1549.77,862.45 1545,877.5C 1532.07,901.878 1511.91,911.711 1484.5,907C 1463.6,901.102 1450.44,887.602 1445,866.5C 1441.01,846.739 1444.34,828.406 1455,811.5C 1463.12,801.7 1473.29,795.367 1485.5,792.5 Z M 1491.5,806.5 C 1514.94,805.464 1528.77,816.464 1533,839.5C 1535.19,852.339 1533.52,864.672 1528,876.5C 1514.12,894.592 1496.96,898.425 1476.5,888C 1464.54,878.905 1458.87,866.739 1459.5,851.5C 1459.32,841.288 1461.48,831.621 1466,822.5C 1472.25,813.463 1480.75,808.129 1491.5,806.5 Z"/></g>
<g><path style="opacity:0.916" fill="#000000" d="M 633.5,918.5 C 638.833,918.5 644.167,918.5 649.5,918.5C 649.333,933.837 649.5,949.17 650,964.5C 668.333,963.167 686.667,963.167 705,964.5C 705.5,949.17 705.667,933.837 705.5,918.5C 710.833,918.5 716.167,918.5 721.5,918.5C 721.5,955.833 721.5,993.167 721.5,1030.5C 716.167,1030.5 710.833,1030.5 705.5,1030.5C 705.5,1013.17 705.5,995.833 705.5,978.5C 686.833,978.5 668.167,978.5 649.5,978.5C 649.5,995.833 649.5,1013.17 649.5,1030.5C 644.167,1030.5 638.833,1030.5 633.5,1030.5C 633.5,993.167 633.5,955.833 633.5,918.5 Z"/></g>
<g><path style="opacity:0.925" fill="#000000" d="M 809.5,918.5 C 815.537,918.171 821.537,918.504 827.5,919.5C 845.863,946.697 864.03,974.031 882,1001.5C 882.5,973.835 882.667,946.169 882.5,918.5C 887.833,918.5 893.167,918.5 898.5,918.5C 898.5,955.833 898.5,993.167 898.5,1030.5C 892.575,1030.81 886.741,1030.47 881,1029.5C 862.667,1001.83 844.333,974.167 826,946.5C 825.5,974.498 825.333,1002.5 825.5,1030.5C 820.167,1030.5 814.833,1030.5 809.5,1030.5C 809.5,993.167 809.5,955.833 809.5,918.5 Z"/></g>
<g><path style="opacity:0.879" fill="#000000" d="M 755.5,978.5 C 768.792,975.541 779.626,979.207 788,989.5C 793.097,1000.07 792.097,1010.07 785,1019.5C 774.12,1030.35 762.953,1040.85 751.5,1051C 764.829,1051.5 778.163,1051.67 791.5,1051.5C 791.5,1055.5 791.5,1059.5 791.5,1063.5C 772.924,1063.83 754.424,1063.49 736,1062.5C 736.336,1055.5 738.669,1049.17 743,1043.5C 752.667,1034.5 762.333,1025.5 772,1016.5C 776.089,1012.32 778.589,1007.32 779.5,1001.5C 778.372,992.761 773.372,988.428 764.5,988.5C 754.697,988.634 749.363,993.634 748.5,1003.5C 745.156,1004.76 741.823,1004.76 738.5,1003.5C 737.568,996.461 739.568,990.295 744.5,985C 747.933,982.289 751.6,980.123 755.5,978.5 Z"/></g>
<g><path style="opacity:0.913" fill="#000000" d="M 1270.5,1164.5 C 1303.89,1160.44 1325.06,1174.44 1334,1206.5C 1339.06,1229.44 1333.89,1249.61 1318.5,1267C 1304.47,1278.34 1288.47,1282.34 1270.5,1279C 1245.55,1271.99 1231.72,1255.49 1229,1229.5C 1226.54,1206.5 1234.04,1187.67 1251.5,1173C 1257.62,1169.47 1263.95,1166.64 1270.5,1164.5 Z M 1275.5,1178.5 C 1298.04,1176.84 1312.2,1186.84 1318,1208.5C 1320.47,1221.14 1319.47,1233.47 1315,1245.5C 1306.06,1261.22 1292.56,1267.72 1274.5,1265C 1260.87,1261.37 1251.7,1252.87 1247,1239.5C 1243.83,1226 1244.5,1212.67 1249,1199.5C 1254.45,1188.22 1263.28,1181.22 1275.5,1178.5 Z"/></g>
<g><path style="opacity:0.914" fill="#000000" d="M 1354.5,1166.5 C 1359.83,1166.5 1365.17,1166.5 1370.5,1166.5C 1370.33,1181.84 1370.5,1197.17 1371,1212.5C 1389.67,1211.17 1408.33,1211.17 1427,1212.5C 1427.5,1197.17 1427.67,1181.84 1427.5,1166.5C 1432.83,1166.5 1438.17,1166.5 1443.5,1166.5C 1443.5,1203.83 1443.5,1241.17 1443.5,1278.5C 1438.17,1278.5 1432.83,1278.5 1427.5,1278.5C 1427.5,1261.17 1427.5,1243.83 1427.5,1226.5C 1408.5,1226.5 1389.5,1226.5 1370.5,1226.5C 1370.5,1243.83 1370.5,1261.17 1370.5,1278.5C 1365.17,1278.5 1359.83,1278.5 1354.5,1278.5C 1354.5,1241.17 1354.5,1203.83 1354.5,1166.5 Z"/></g>
</svg>
