<?xml version="1.0" encoding="UTF-8"?>
<!DOCTYPE svg PUBLIC "-//W3C//DTD SVG 1.1//EN" "http://www.w3.org/Graphics/SVG/1.1/DTD/svg11.dtd">
<svg xmlns="http://www.w3.org/2000/svg" version="1.1" width="1920px" height="1634px" style="shape-rendering:geometricPrecision; text-rendering:geometricPrecision; image-rendering:optimizeQuality; fill-rule:evenodd; clip-rule:evenodd" xmlns:xlink="http://www.w3.org/1999/xlink">
<g><path style="opacity:0.958" fill="#000000" d="M 625.5,31.5 C 626.552,31.3505 627.552,31.5172 628.5,32C 733.333,136.833 838.167,241.667 943,346.5C 1086.5,307.916 1230,269.25 1373.5,230.5C 1375.3,236.557 1377.3,242.557 1379.5,248.5C 1379.29,249.086 1378.96,249.586 1378.5,250C 1251.49,283.628 1124.65,317.795 998,352.5C 944.111,497.943 889.945,643.276 835.5,788.5C 838.109,791.144 841.109,793.311 844.5,795C 967.912,865.788 1091.08,936.954 1214,1008.5C 1309.75,953.04 1405.58,897.707 1501.5,842.5C 1505.77,847.533 1509.44,853.033 1512.5,859C 1425.67,909.167 1338.83,959.333 1252,1009.5C 1251.5,1125.17 1251.33,1240.83 1251.5,1356.5C 1244.83,1356.5 1238.17,1356.5 1231.5,1356.5C 1231.67,1244.83 1231.5,1133.17 1231,1021.5C 1225.33,1024.83 1219.67,1028.17 1214,1031.5C 1208.42,1028.29 1202.92,1024.96 1197.5,1021.5C 1196.5,1133.16 1196.17,1244.83 1196.5,1356.5C 1190.17,1356.5 1183.83,1356.5 1177.5,1356.5C 1177.83,1240.83 1177.5,1125.16 1176.5,1009.5C 1058.5,941.5 940.5,873.5 822.5,805.5C 729.5,859.333 636.5,913.167 543.5,967C 540.942,968.626 538.275,969.626 535.5,970C 532.541,965.249 529.707,960.416 527,955.5C 526.251,954.365 526.417,953.365 527.5,952.5C 623.245,897.545 718.745,842.212 814,786.5C 817.434,768.901 820.101,751.234 822,733.5C 803.583,744.626 785.083,755.626 766.5,766.5C 762.598,761.04 758.931,755.373 755.5,749.5C 775.337,737.747 795.337,726.247 815.5,715C 816.5,714.333 817.5,714.333 818.5,715C 820.458,717.748 822.291,720.582 824,723.5C 846.766,590.405 869.266,457.238 891.5,324C 799.679,230.846 707.179,138.346 614,46.5C 613.333,45.5 613.333,44.5 614,43.5C 618.037,39.631 621.87,35.631 625.5,31.5 Z"/></g>
<g><path style="opacity:0.968" fill="#000000" d="M 523.5,303.5 C 533.167,303.5 542.833,303.5 552.5,303.5C 552.5,331.5 552.5,359.5 552.5,387.5C 585.5,387.5 618.5,387.5 651.5,387.5C 651.5,359.5 651.5,331.5 651.5,303.5C 660.833,303.5 670.167,303.5 679.5,303.5C 679.5,371.833 679.5,440.167 679.5,508.5C 670.167,508.5 660.833,508.5 651.5,508.5C 651.5,476.167 651.5,443.833 651.5,411.5C 618.5,411.5 585.5,411.5 552.5,411.5C 552.5,443.833 552.5,476.167 552.5,508.5C 542.833,508.5 533.167,508.5 523.5,508.5C 523.5,440.167 523.5,371.833 523.5,303.5 Z"/></g>
<g><path style="opacity:0.92" fill="#000000" d="M 695.5,504.5 C 696.496,504.414 697.329,504.748 698,505.5C 700.968,510.602 703.801,515.769 706.5,521C 706.167,521.5 705.833,522 705.5,522.5C 686.037,533.467 666.704,544.634 647.5,556C 645.633,556.711 644.133,556.211 643,554.5C 640.667,550.5 638.333,546.5 636,542.5C 635.251,541.365 635.417,540.365 636.5,539.5C 656.395,528.059 676.062,516.392 695.5,504.5 Z"/></g>
<g><path style="opacity:0.92" fill="#000000" d="M 726.5,556.5 C 730.142,561.097 733.308,566.097 736,571.5C 736.749,572.635 736.583,573.635 735.5,574.5C 715.584,586.041 695.751,597.707 676,609.5C 672.125,604.254 668.625,598.754 665.5,593C 685.897,580.807 706.23,568.641 726.5,556.5 Z"/></g>
<g><path style="opacity:0.921" fill="#000000" d="M 756.5,608.5 C 760.392,613.932 764.058,619.598 767.5,625.5C 748.999,636.918 730.332,648.085 711.5,659C 709.35,660.59 707.017,661.257 704.5,661C 700.942,655.714 698.109,650.214 696,644.5C 716.313,632.6 736.479,620.6 756.5,608.5 Z"/></g>
<g><path style="opacity:0.92" fill="#000000" d="M 785.5,661.5 C 786.822,661.33 787.989,661.663 789,662.5C 791.96,667.586 794.794,672.753 797.5,678C 776.703,689.967 756.037,702.134 735.5,714.5C 732.667,709.5 729.833,704.5 727,699.5C 726.333,698.5 726.333,697.5 727,696.5C 746.646,684.933 766.146,673.267 785.5,661.5 Z"/></g>
<g><path style="opacity:0.959" fill="#000000" d="M 1591.5,691.5 C 1649.71,686.905 1685.55,712.905 1699,769.5C 1703.17,793.816 1701.83,817.816 1695,841.5C 1682.76,876.076 1658.59,896.576 1622.5,903C 1571.57,909.303 1536.74,888.803 1518,841.5C 1508.84,810.28 1509.51,779.28 1520,748.5C 1533.23,715.995 1557.06,696.995 1591.5,691.5 Z M 1598.5,714.5 C 1629.83,712.409 1651.66,725.742 1664,754.5C 1675.57,788.053 1673.57,820.719 1658,852.5C 1640.89,876.986 1617.72,885.486 1588.5,878C 1566.03,870.189 1551.86,854.689 1546,831.5C 1540,808.833 1540,786.167 1546,763.5C 1553.5,736.163 1571,719.83 1598.5,714.5 Z"/></g>
<g><path style="opacity:0.968" fill="#000000" d="M 1741.5,694.5 C 1751.17,694.5 1760.83,694.5 1770.5,694.5C 1770.5,722.5 1770.5,750.5 1770.5,778.5C 1803.5,778.5 1836.5,778.5 1869.5,778.5C 1869.5,750.5 1869.5,722.5 1869.5,694.5C 1878.83,694.5 1888.17,694.5 1897.5,694.5C 1897.5,762.833 1897.5,831.167 1897.5,899.5C 1888.17,899.5 1878.83,899.5 1869.5,899.5C 1869.5,867.167 1869.5,834.833 1869.5,802.5C 1836.5,802.5 1803.5,802.5 1770.5,802.5C 1770.5,834.833 1770.5,867.167 1770.5,899.5C 1760.83,899.5 1751.17,899.5 1741.5,899.5C 1741.5,831.167 1741.5,762.833 1741.5,694.5 Z"/></g>
<g><path style="opacity:0.968" fill="#000000" d="M 38.5,924.5 C 48.1667,924.5 57.8333,924.5 67.5,924.5C 67.5,952.5 67.5,980.5 67.5,1008.5C 100.5,1008.5 133.5,1008.5 166.5,1008.5C 166.5,980.5 166.5,952.5 166.5,924.5C 175.833,924.5 185.167,924.5 194.5,924.5C 194.5,992.833 194.5,1061.17 194.5,1129.5C 185.167,1129.5 175.833,1129.5 166.5,1129.5C 166.5,1097.17 166.5,1064.83 166.5,1032.5C 133.5,1032.5 100.5,1032.5 67.5,1032.5C 67.5,1064.83 67.5,1097.17 67.5,1129.5C 57.8333,1129.5 48.1667,1129.5 38.5,1129.5C 38.5,1061.17 38.5,992.833 38.5,924.5 Z"/></g>
<g><path style="opacity:0.957" fill="#000000" d="M 355.5,924.5 C 368.413,924.178 381.246,924.511 394,925.5C 423.588,981.009 452.921,1036.68 482,1092.5C 482.5,1036.5 482.667,980.501 482.5,924.5C 491.833,924.5 501.167,924.5 510.5,924.5C 510.5,992.833 510.5,1061.17 510.5,1129.5C 497.587,1129.82 484.754,1129.49 472,1128.5C 442.667,1073.17 413.333,1017.83 384,962.5C 383.5,1018.17 383.333,1073.83 383.5,1129.5C 374.167,1129.5 364.833,1129.5 355.5,1129.5C 355.5,1061.17 355.5,992.833 355.5,924.5 Z"/></g>
<g><path style="opacity:0.943" fill="#000000" d="M 273.5,1031.5 C 286.887,1031.43 299.221,1034.93 310.5,1042C 325.017,1054.89 329.517,1070.73 324,1089.5C 318.654,1101.52 311.32,1112.19 302,1121.5C 287.137,1136.03 272.637,1150.86 258.5,1166C 281.164,1166.5 303.831,1166.67 326.5,1166.5C 326.5,1172.5 326.5,1178.5 326.5,1184.5C 294.833,1184.5 263.167,1184.5 231.5,1184.5C 231.08,1177.72 231.58,1171.05 233,1164.5C 254.394,1143.77 275.06,1122.44 295,1100.5C 300.826,1093.35 303.992,1085.18 304.5,1076C 303.903,1064.4 298.237,1056.4 287.5,1052C 267.869,1048.61 249.703,1052.45 233,1063.5C 232.169,1056.14 232.335,1048.81 233.5,1041.5C 246.428,1035.99 259.761,1032.65 273.5,1031.5 Z"/></g>
<g><path style="opacity:0.959" fill="#000000" d="M 1200.5,1368.5 C 1258.71,1363.91 1294.55,1389.91 1308,1446.5C 1312.17,1470.82 1310.83,1494.82 1304,1518.5C 1291.76,1553.08 1267.59,1573.58 1231.5,1580C 1180.57,1586.3 1145.74,1565.8 1127,1518.5C 1117.84,1487.28 1118.51,1456.28 1129,1425.5C 1142.23,1392.99 1166.06,1373.99 1200.5,1368.5 Z M 1207.5,1391.5 C 1238.83,1389.41 1260.66,1402.74 1273,1431.5C 1284.57,1465.05 1282.57,1497.72 1267,1529.5C 1249.89,1553.99 1226.72,1562.49 1197.5,1555C 1175.03,1547.19 1160.86,1531.69 1155,1508.5C 1149,1485.83 1149,1463.17 1155,1440.5C 1162.5,1413.16 1180,1396.83 1207.5,1391.5 Z"/></g>
</svg>
